<svg xmlns="http://www.w3.org/2000/svg" width="134" height="77" class="img-fluid logo-mobility-home svg replaced-svg"><defs><linearGradient id="a" x1="26.756%" x2="78.704%" y1="61.116%" y2="39.961%"><stop offset="0%" stop-color="#0F3B62"/><stop offset="100%" stop-color="#0089A6"/></linearGradient></defs><g fill="none" fill-rule="evenodd"><path fill="url(#a)" d="m117.582 0 .09.003.257.014c3.043.26 4.441 3.482 5.66 5.924l.73 1.526c2.158 4.597 4.017 9.35 5.925 14.05l1.268 3.135 1.256 3.138.113.297c.253.7.436 1.466.44 2.19v.039l-.005.17c-.049 1.07-.523 2.025-1.791 2.514l-.883.33c-3.847 1.397-7.938 2.348-11.933 3.149l-1.418.275c-6.628 1.246-13.37 1.943-20.109 2.436l-.256.652c-1.378 3.478-2.947 6.95-5.17 9.86l-.186.238c-.873 1.108-1.88 2.123-3.247 2.577l-.811.258c-.544.167-1.094.324-1.647.474l-.286.09c-1.678.523-2.681.81-3.01.86l-.049.008a3.15 3.15 0 0 1-.476.037h-.026l-.135-.003a4.25 4.25 0 0 1-1.47-.345l-.307-.139c-2.935-1.415-4.631-4.902-6.088-7.633l-.509-.955c-.846-1.59-1.693-3.166-2.639-4.678l-2.683.071c-16.102.395-32.247.161-48.28-.84l-1.477-.095c-3.445-.228-6.89-.504-10.315-.939l-.522-.065c-2.1-.26-4.327-.514-6.294-1.286l-.166-.072c-1.914-.91-1.065-3.552.075-4.936l.27-.315c3.228-3.605 8.854-4.788 13.288-5.983l.8-.213c12.279-3.214 25.594-4.503 38.154-2.26l.505.094c8.067 1.57 15.537 6.167 20.616 12.658l.395.519c.517.698.994 1.417 1.446 2.15l3.132-.092c4.176-.136 8.348-.321 12.514-.557l.958-2.486c1.571-4.154 3.031-8.352 4.567-12.515l.554-1.497c1.113-2.992 2.258-5.974 3.524-8.905l.18-.419c1.45-3.365 3.006-7.005 5.79-9.471l.258-.217c.608-.484 1.26-.82 1.944-1.082l-.054.01-.055.008.083-.02.084-.02.513-.178c.863-.279 1.77-.474 2.702-.721C114.703.465 116.1 0 117.493 0h.09Zm-25.74 39.545-1.136.069-1.135.066-3.027.168c-3.029.16-6.061.3-9.096.42l.823 1.479c.809 1.488 1.585 2.998 2.434 4.475l.168.295c.978 1.707 2.314 4.025 4.108 5.254.06.04.164.08.28.08l.078-.006a.511.511 0 0 0 .31-.176l.169-.203c.108-.139.21-.283.313-.426l.389-.558c1.397-2.064 2.496-4.331 3.503-6.605l.624-1.436c.41-.961.807-1.927 1.196-2.896ZM45.594 24.752c-6.093-.8-12.312-.821-18.431-.36l-1.175.093a96.752 96.752 0 0 0-5.858.667l-.101.016c-1.164.185-5.83 1.107-8.093 2.135l-.154.07c-2.646 1.23-7.154 4.038-5.818 7.635l.056.12c.644 1.14 4.186 1.672 6.74 1.962l.514.056c.745.08 1.368.14 1.755.19l1.492.178c5.48.615 11.042.805 16.502 1.04a660.68 660.68 0 0 0 28.314.623l2.876-.007c1.918-.009 3.836-.027 5.754-.055l-.404-.57a25.345 25.345 0 0 0-1.774-2.19l-.368-.398c-5.563-5.94-12.735-9.887-20.812-11.065Zm72.148-17.396c-.92-1.872-2.907-6.325-4.663-5.872l-.12.05c-1.256.622-2.817 4.553-3.733 6.487l-.563 1.214a136.342 136.342 0 0 0-3.092 7.408l-1.19 3.131c-1.954 5.23-3.783 10.505-5.783 15.717-.317.826-.634 1.665-.956 2.51l2.047-.141c1.365-.097 2.73-.198 4.092-.308l1.854-.153c4.326-.37 8.648-.82 12.943-1.454l.281-.043c1.181-.184 2.989-.52 4.414-.797l.276-.056c1.1-.236 2.171-.598 2.784-1.023l.158-.117c1.32-1.035 1.264-2.643.595-4.325l-1.17-2.928-1.182-2.925-.6-1.486c-1.999-4.958-3.978-9.954-6.325-14.754Z"/><path fill="#132342" d="M26.954 63.17c.844 0 1.637.134 2.378.401.742.267 1.398.65 1.971 1.15a5.24 5.24 0 0 1 1.332 1.797 5.41 5.41 0 0 1 .476 2.264c0 .295-.028.631-.084 1.01a8.663 8.663 0 0 1-.975 2.846 8.155 8.155 0 0 1-1.84 2.26 8.326 8.326 0 0 1-2.5 1.476 8.215 8.215 0 0 1-2.924.522 7.227 7.227 0 0 1-2.474-.413 5.473 5.473 0 0 1-1.95-1.185 5.16 5.16 0 0 1-1.237-1.846c-.286-.717-.429-1.504-.429-2.36 0-.423.033-.856.1-1.3a7.006 7.006 0 0 1 1-2.656 8.203 8.203 0 0 1 1.912-2.106 8.938 8.938 0 0 1 2.499-1.376 8.106 8.106 0 0 1 2.745-.483Zm76.311.204c1.433 0 2.695.41 3.838 1.263v1.776c-1.023-1.058-2.44-1.708-3.924-1.708-2.866 0-5.186 2.493-5.186 5.328 0 2.834 2.338 5.327 5.221 5.327 1.45 0 2.866-.683 3.89-1.707v1.776c-1.11.802-2.474 1.263-3.839 1.263-3.634 0-6.705-2.954-6.705-6.608 0-3.688 3.02-6.71 6.705-6.71Zm-19.84.222 1.857 3.502 2.958-3.502h4.007l-5.799 6.696-.975 6.179h-3.348l.975-6.18-3.683-6.695h4.007Zm-24.887 0-1.583 10.04h4.007l-.441 2.835h-7.356l2.033-12.875h3.34Zm9.3 0L65.807 76.47h-3.341l2.033-12.875h3.34Zm56.84 0 3.275 5.736 3.275-5.736h1.655l-4.214 7.342v5.533h-1.432v-5.533l-4.215-7.342h1.656Zm-12.83 0v12.875h-1.434V63.596h1.433Zm10.014 0v1.331h-3.139v11.544h-1.433V64.927h-3.105v-1.331h7.677Zm-43.098 0-.442 2.835h-2.765l-1.592 10.04h-3.34l1.591-10.04H69.45l.441-2.835h8.873Zm-26.61 0L50.12 76.47H46.78l2.033-12.875h3.34Zm-44.648 0 1.533 6.879 3.84-6.88h3.333l-.092 12.876h-3.34l.241-7.413h-.041L8.714 76.47H7.389l-1.774-7.413h-.033L3.324 76.47H0l4.215-12.875h3.291Zm33.68 0c2.245 0 3.366.859 3.366 2.577 0 .277-.025.533-.075.766-.183 1.268-.791 2.147-1.824 2.635v.034c1.444.19 2.166 1.009 2.166 2.46 0 .283-.022.556-.067.817-.194 1.25-.78 2.161-1.758 2.73-.977.571-2.13.856-3.457.856H34.38l2.033-12.875Zm-1.707 7.546h-.917l-.425 2.768h.425c.81 0 1.47-.081 1.974-.246.506-.163.803-.537.892-1.12.022-.134.034-.238.034-.31 0-.45-.177-.744-.53-.884-.352-.139-.837-.208-1.453-.208Zm-13.033-4.728c-.656 0-1.286.16-1.892.475a4.683 4.683 0 0 0-1.524 1.26c-.411.522-.661 1.075-.75 1.66-.033.238-.05.466-.05.683 0 .928.288 1.687.863 2.276.574.59 1.312.884 2.212.884.66 0 1.294-.167 1.899-.5a4.618 4.618 0 0 0 1.541-1.389 4.526 4.526 0 0 0 .8-1.955c.027-.167.042-.314.042-.442 0-.528-.137-1.019-.409-1.472a2.978 2.978 0 0 0-1.124-1.08 3.235 3.235 0 0 0-1.608-.4Zm13.157-.258h-.241l-.392 2.493h.376c.538 0 .987-.085 1.345-.254.358-.17.576-.5.654-.988 0-.54-.151-.883-.454-1.03-.303-.148-.732-.221-1.288-.221Z"/></g></svg>