<svg xmlns="http://www.w3.org/2000/svg" xml:space="preserve" id="Layer_1" x="0" y="0" style="enable-background:new 0 0 235 77" version="1.1" viewBox="0 0 235 77"><style>.st3,.st4{fill-rule:evenodd;clip-rule:evenodd;fill:#1a1919}.st4{fill:#fff}</style><g id="G"><path id="Fill-1" d="M0 55h55V0H0z" style="fill-rule:evenodd;clip-rule:evenodd;fill:#630"/><path id="Fill-3" d="M60 55h55V0H60z" style="fill-rule:evenodd;clip-rule:evenodd;fill:#c60"/><path id="Fill-5" d="M120 55h55V0h-55z" style="fill-rule:evenodd;clip-rule:evenodd;fill:#dc9630"/><path id="Fill-7" d="M180 55h55V0h-55z" class="st3"/></g><g id="T"><path id="Fill-2" d="M17 10.1h20.7v5.5H24v8.6h12.5v5.5H24v9.8h13.8V45H17V10.1" class="st4"/><path id="Fill-4" d="M83.4 15.6h-10v-5.5h27v5.5h-10V45h-7V15.6" class="st4"/><path id="Fill-6" d="M155.8 16.5c-2.3-1-4.7-1.5-7.1-1.5-1.5 0-2.8.4-3.8 1.1-1.1.8-1.7 2-1.7 3.7 0 1.6 1.7 3.1 5.1 4.5 3.4 1.4 5.9 2.7 7.6 3.9 1.7 1.2 2.6 3.4 2.6 6.8 0 3.6-1.2 6.3-3.6 8-2.4 1.7-5.6 2.6-9.5 2.6-2 0-3.5-.1-4.6-.4s-2.5-.6-4.3-1l.7-6.3c1.2.7 2.5 1.2 3.9 1.6 1.4.4 2.7.6 4 .6 1.6 0 3-.4 4.3-1.2 1.3-.8 1.9-1.9 1.9-3.4 0-1.8-1.8-3.4-5.3-5-3.6-1.6-6.1-2.9-7.7-4-1.5-1-2.3-3.2-2.3-6.5 0-3.6 1.2-6.3 3.5-8.1 2.3-1.7 5.2-2.6 8.7-2.6 3.1 0 5.8.4 8.3 1.2l-.7 6" class="st4"/><path id="Fill-8" d="M220.4 44.5c-1.3.3-2.7.6-4.1.8-1.4.2-2.7.3-3.9.3-5.8 0-10.5-1.5-13.9-4.4-3.5-3-5.2-7.3-5.2-13 0-6 1.7-10.5 5.1-13.8 3.4-3.2 8.1-4.9 14.1-4.9 1.2 0 2.5.1 3.9.4 1.4.2 2.7.6 4 1.1l-.5 5.9c-1.3-.7-2.5-1.2-3.6-1.5s-2.5-.4-3.9-.4c-3.5 0-6.4 1.2-8.5 3.6-2.1 2.4-3.2 5.4-3.2 9.1 0 3.7 1.1 6.7 3.2 9s5 3.5 8.7 3.5c1.4 0 2.8-.1 4.3-.4 1.5-.3 2.6-.6 3.4-1.1l.1 5.8" class="st4"/></g><g id="B"><path id="Fill-9" d="M.8 64.9h5.3v1.5H2.6v2.2h3.2V70H2.6v2.6h3.6V74H.8v-9.1" class="st3"/><path id="Fill-10" d="M14.7 74H13v-.9c-.3.3-.6.6-1 .8-.4.2-.8.3-1.2.3-.8 0-1.3-.2-1.7-.7-.4-.5-.6-1.1-.6-1.9v-4.2h1.7V71c0 .6.1 1.1.2 1.4.1.3.4.5.9.5.6 0 1-.2 1.2-.7.2-.5.3-1 .3-1.5v-3.3h1.7V74" class="st3"/><path id="Fill-11" d="M17.3 67.3h1.5v1.5c.1-.4.3-.7.6-1.1.4-.4.8-.6 1.2-.6h.6V69c-.1 0-.2-.1-.3-.1h-.5c-.5 0-.8.2-1.1.6-.2.4-.4 1.1-.4 2.1V74h-1.7v-6.7" class="st3"/><path id="Fill-12" d="M26.1 67.2c1 0 1.9.3 2.5 1 .7.6 1 1.5 1 2.6 0 1-.3 1.8-.9 2.5-.6.7-1.5 1-2.6 1s-1.9-.3-2.6-1c-.6-.7-.9-1.5-.9-2.5 0-1.1.3-1.9 1-2.6.6-.7 1.5-1 2.5-1zm0 5.6c.6 0 1-.2 1.3-.7.3-.4.4-1 .4-1.7 0-.6-.1-1-.4-1.4-.3-.4-.7-.6-1.3-.6-.5 0-1 .2-1.2.6-.3.4-.4.9-.4 1.4 0 .7.1 1.2.4 1.7.1.5.6.7 1.2.7z" class="st3"/><path id="Fill-13" d="M31.7 67.3h1.7v.9c.2-.3.5-.6.8-.8.3-.2.8-.3 1.3-.3 1 0 1.7.3 2.1 1 .5.7.7 1.5.7 2.5s-.2 1.9-.7 2.5c-.5.7-1.2 1-2.2 1-.4 0-.8-.1-1.1-.2-.3-.1-.6-.4-.9-.7v3.5h-1.7v-9.4zm1.7 3.3c0 .6.1 1.1.4 1.5.2.4.6.7 1.2.7.5 0 .9-.2 1.1-.7.2-.4.4-.9.4-1.5s-.1-1.1-.3-1.5c-.2-.4-.6-.6-1.1-.6-.5 0-.9.2-1.2.7-.3.4-.5.9-.5 1.4z" class="st3"/><path id="Fill-14" d="M44.5 70c0-.5-.1-.8-.4-1.1-.2-.3-.6-.4-1.1-.4-.5 0-.8.1-1.1.4-.3.3-.4.7-.5 1.1h3.1zm1.2 3.6c-.6.4-1.4.5-2.3.5-1.1 0-2-.3-2.6-.9-.6-.6-.9-1.5-.9-2.6 0-1 .3-1.9.8-2.5.5-.7 1.3-1 2.3-1 1.2 0 2 .4 2.5 1.1.5.7.7 1.7.7 3h-4.6c0 .5.2.9.5 1.3.4.3.8.5 1.4.5.4 0 .8-.1 1.1-.2.3-.1.7-.3 1.1-.5v1.3z" class="st3"/><path id="Fill-15" d="M48.6 67.7c.7-.3 1.5-.5 2.3-.5 1 0 1.8.2 2.2.7.5.4.7 1.2.7 2.2v2.5l.1 1.5h-1.5c0-.2-.1-.3-.1-.5v-.5c-.2.4-.5.7-.9.9-.4.2-.8.3-1.2.3-.6 0-1.2-.2-1.6-.5-.5-.4-.7-.8-.7-1.5 0-.5.1-.9.3-1.2.2-.3.5-.5.8-.7s.7-.4 1-.4c.4-.1.8-.1 1.2-.1h1c0-.5-.1-.9-.4-1.1-.2-.2-.6-.3-1.2-.3-.4 0-.7.1-1.1.2-.4.1-.7.3-1 .5l.1-1.5zm2 5.2c.3 0 .5-.1.7-.2.2-.1.4-.2.5-.4l.3-.6c.1-.2.1-.5.1-.8h-.8c-.5 0-1 .1-1.4.2-.4.2-.6.5-.6.9 0 .3.1.5.3.6.3.2.6.3.9.3z" class="st3"/><path id="Fill-16" d="M56.3 67.3H58v.9c.3-.4.6-.6 1-.8.4-.2.8-.3 1.3-.3.8 0 1.3.2 1.7.7.4.5.6 1.1.6 1.9V74h-1.7v-3.6c0-.6-.1-1.1-.2-1.4-.1-.3-.4-.5-.9-.5-.6 0-1 .2-1.2.7-.2.5-.3 1-.3 1.5V74h-1.7v-6.7" class="st3"/><path id="Fill-17" d="M71.1 66.4h-2.6v-1.5h7v1.5h-2.6V74h-1.8v-7.6" class="st3"/><path id="Fill-18" d="M77.2 67.3h1.5v1.5c.1-.4.3-.7.6-1.1.4-.4.8-.6 1.2-.6h.6V69c-.1 0-.2-.1-.3-.1h-.5c-.5 0-.8.2-1.1.6s-.2 1-.2 2.1V74h-1.7v-6.7" class="st3"/><path id="Fill-19" d="M83.3 67.7c.7-.3 1.5-.5 2.3-.5 1 0 1.8.2 2.2.7.5.4.7 1.2.7 2.2v2.5l.1 1.5h-1.5c0-.2-.1-.3-.1-.5v-.5c-.2.4-.5.7-.9.9-.4.2-.8.3-1.2.3-.6 0-1.2-.2-1.6-.5-.5-.4-.7-.8-.7-1.5 0-.5.1-.9.3-1.2.2-.3.5-.5.8-.7.3-.2.7-.3 1.1-.3.4-.1.8-.1 1.2-.1h1c0-.5-.1-.9-.4-1.1-.2-.2-.6-.3-1.2-.3-.4 0-.7.1-1.1.2s-.7.3-1 .5v-1.6zm2 5.2c.3 0 .5-.1.7-.2.2-.1.4-.2.5-.4l.3-.6c.1-.2.1-.5.1-.8h-.8c-.5 0-1 .1-1.4.2-.4.2-.6.5-.6.9 0 .3.1.5.3.6.3.2.6.3.9.3z" class="st3"/><path id="Fill-20" d="M90.9 67.3h1.7v.9c.3-.4.6-.6 1-.8s.8-.3 1.3-.3c.8 0 1.3.2 1.7.7.4.5.6 1.1.6 1.9V74h-1.7v-3.6c0-.6-.1-1.1-.2-1.4-.1-.3-.4-.5-.9-.5-.6 0-1 .2-1.2.7-.2.5-.3 1-.3 1.5V74h-1.7v-6.7" class="st3"/><path id="Fill-21" d="M103.6 68.7c-.3-.1-.5-.2-.8-.2-.2 0-.5-.1-.8-.1-.3 0-.5.1-.7.2-.2.1-.3.3-.3.6s.3.5 1 .7 1.1.4 1.5.7c.4.2.6.7.6 1.4s-.3 1.3-.8 1.6c-.5.4-1.2.5-2 .5-.3 0-.6 0-1-.1-.3 0-.7-.1-1-.2l.1-1.4c.3.2.6.3.8.3.3.1.6.1.9.1.3 0 .6-.1.8-.2.2-.1.4-.3.4-.6s-.5-.7-1.5-1c-1-.3-1.5-.9-1.5-1.8 0-.7.3-1.2.8-1.6.5-.4 1.1-.5 1.9-.5.4 0 .7 0 .9.1.2 0 .6.1 1 .2l-.3 1.3" class="st3"/><path id="Fill-22" d="M106.1 67.3h1.7v.9c.2-.3.5-.6.8-.8.3-.2.8-.3 1.3-.3 1 0 1.7.3 2.1 1 .5.7.7 1.5.7 2.5s-.2 1.9-.7 2.5c-.5.7-1.2 1-2.2 1-.4 0-.8-.1-1.1-.2-.3-.1-.6-.4-.9-.7v3.5h-1.7v-9.4zm1.7 3.3c0 .6.1 1.1.4 1.5.2.4.6.7 1.2.7.5 0 .9-.2 1.1-.7.2-.4.4-.9.4-1.5s-.1-1.1-.3-1.5c-.2-.4-.6-.6-1.1-.6-.5 0-.9.2-1.2.7-.3.4-.5.9-.5 1.4z" class="st3"/><path id="Fill-23" d="M117.8 67.2c1 0 1.9.3 2.5 1 .7.6 1 1.5 1 2.6 0 1-.3 1.8-.9 2.5-.6.7-1.5 1-2.6 1s-1.9-.3-2.6-1c-.6-.7-.9-1.5-.9-2.5 0-1.1.3-1.9 1-2.6.7-.7 1.5-1 2.5-1zm0 5.6c.6 0 1-.2 1.3-.7.3-.4.4-1 .4-1.7 0-.6-.1-1-.4-1.4-.3-.4-.7-.6-1.3-.6-.5 0-1 .2-1.2.6-.3.4-.4.9-.4 1.4 0 .7.1 1.2.4 1.7.2.5.6.7 1.2.7z" class="st3"/><path id="Fill-24" d="M123.5 67.3h1.5v1.5c.1-.4.3-.7.6-1.1.4-.4.8-.6 1.2-.6h.6V69c-.1 0-.2-.1-.3-.1h-.5c-.5 0-.8.2-1.1.6s-.4 1.1-.4 2.1V74h-1.7v-6.7" class="st3"/><path id="Fill-25" d="M129.8 68.6h-1.3v-1.3h1.3V66l1.7-.6v1.9h1.5v1.3h-1.5v3.1c0 .3.1.6.2.8.1.2.3.3.6.3s.6-.1.8-.2l.1 1.4c-.4.1-.8.2-1.3.2-.7 0-1.2-.2-1.6-.6-.4-.4-.6-.9-.6-1.6v-3.4" class="st3"/><path id="Fill-26" d="M144.4 66.6c-.6-.3-1.2-.4-1.8-.4-.4 0-.7.1-1 .3-.3.2-.4.5-.4 1 0 .4.4.8 1.3 1.2.9.4 1.5.7 2 1 .4.3.7.9.7 1.8s-.3 1.6-.9 2.1-1.5.7-2.5.7c-.5 0-.9 0-1.2-.1-.3-.1-.7-.1-1.1-.3l.2-1.7c.3.2.7.3 1 .4.4.1.7.2 1 .2.4 0 .8-.1 1.1-.3.3-.2.5-.5.5-.9 0-.5-.5-.9-1.4-1.3-.9-.4-1.6-.8-2-1-.4-.3-.6-.8-.6-1.7 0-.9.3-1.6.9-2.1.6-.5 1.4-.7 2.3-.7.8 0 1.5.1 2.2.3l-.3 1.5" class="st3"/><path id="Fill-27" d="M147.6 67.7c.7-.3 1.5-.5 2.3-.5 1 0 1.8.2 2.2.7.4.4.7 1.2.7 2.2v2.5l.1 1.5h-1.5c0-.2-.1-.3-.1-.5v-.5c-.2.4-.5.7-.9.9s-.8.3-1.2.3c-.6 0-1.2-.2-1.6-.5-.5-.4-.7-.8-.7-1.5 0-.5.1-.9.3-1.2.2-.3.5-.5.8-.7s.7-.3 1.1-.3c.4-.1.8-.1 1.2-.1h1c0-.5-.1-.9-.4-1.1-.2-.2-.6-.3-1.1-.3-.4 0-.7.1-1.1.2-.4.1-.7.3-1 .5l-.1-1.6zm2 5.2c.3 0 .5-.1.7-.2.2-.1.4-.2.5-.4l.3-.6c.1-.2.1-.5.1-.8h-.8c-.5 0-1 .1-1.4.2-.4.2-.6.5-.6.9 0 .3.1.5.3.6.3.2.6.3.9.3z" class="st3"/><path id="Fill-28" d="M155.9 68.6h-1.3v-1.3h1.3v-.9c0-.7.2-1.2.6-1.7.4-.4.9-.6 1.6-.6h.7c.2 0 .4.1.6.1l-.1 1.4c-.1-.1-.3-.1-.4-.2-.1 0-.3-.1-.4-.1-.3 0-.5.1-.6.3-.1.2-.2.4-.2.7v.8h1.5v1.3h-1.5V74H156v-5.4" class="st3"/><path id="Fill-29" d="M165.2 70c0-.5-.1-.8-.4-1.1-.2-.3-.6-.4-1.1-.4-.5 0-.8.1-1.1.4-.3.3-.4.7-.5 1.1h3.1zm1.2 3.6c-.6.4-1.4.5-2.3.5-1.1 0-2-.3-2.6-.9-.6-.6-.9-1.5-.9-2.6 0-1 .3-1.9.8-2.5.5-.7 1.3-1 2.3-1 1.2 0 2 .4 2.5 1.1s.7 1.7.7 3h-4.6c0 .5.2.9.5 1.3.4.3.8.5 1.4.5.4 0 .8-.1 1.1-.2.3-.1.7-.3 1.1-.5v1.3z" class="st3"/><path id="Fill-30" d="M169.6 68.6h-1.3v-1.3h1.3V66l1.7-.6v1.9h1.5v1.3h-1.5v3.1c0 .3.1.6.2.8.1.2.3.3.6.3s.6-.1.8-.2l.1 1.4c-.4.1-.8.2-1.3.2-.7 0-1.2-.2-1.6-.6-.4-.4-.6-.9-.6-1.6v-3.4" class="st3"/><path id="Fill-31" d="m177.6 72.2 1.6-4.9h1.8l-2.5 6.6c-.3.8-.5 1.3-.7 1.7-.2.3-.4.6-.7.9-.3.3-.8.4-1.4.4-.4 0-.8-.1-1.2-.2l.1-1.3c.2.1.5.1.9.1s.6-.1.8-.3c.2-.2.3-.5.3-.9l-2.6-7h1.9l1.7 4.9" class="st3"/><path id="Fill-32" d="M193.8 73.9c-.3.1-.7.1-1.1.2s-.7.1-1 .1c-1.5 0-2.7-.4-3.6-1.2-.9-.8-1.4-1.9-1.4-3.4s.4-2.7 1.3-3.6c.9-.8 2.1-1.3 3.7-1.3.3 0 .7 0 1 .1.4.1.7.2 1 .3l-.1 1.5c-.3-.2-.6-.3-.9-.4-.3-.1-.6-.1-1-.1-.9 0-1.7.3-2.2.9-.6.6-.8 1.4-.8 2.4s.3 1.7.8 2.3c.6.6 1.3.9 2.3.9.4 0 .7 0 1.1-.1.4-.1.7-.2.9-.3v1.7" class="st3"/><path id="Fill-33" d="M198.8 67.2c1 0 1.9.3 2.5 1 .7.6 1 1.5 1 2.6 0 1-.3 1.8-.9 2.5-.6.7-1.5 1-2.6 1s-1.9-.3-2.6-1c-.6-.7-.9-1.5-.9-2.5 0-1.1.3-1.9 1-2.6.6-.7 1.5-1 2.5-1zm0 5.6c.6 0 1-.2 1.3-.7.3-.4.4-1 .4-1.7 0-.6-.1-1-.4-1.4-.3-.4-.7-.6-1.3-.6-.5 0-1 .2-1.2.6-.3.4-.4.9-.4 1.4 0 .7.1 1.2.4 1.7.2.5.6.7 1.2.7z" class="st3"/><path id="Fill-34" d="M210.5 74h-1.7v-.9c-.3.3-.6.6-1 .8-.4.2-.8.3-1.2.3-.8 0-1.3-.2-1.7-.7-.4-.5-.6-1.1-.6-1.9v-4.2h1.7V71c0 .6.1 1.1.2 1.4.1.3.4.5.9.5.6 0 1-.2 1.2-.7.2-.5.3-1 .3-1.5v-3.3h1.7V74" class="st3"/><path id="Fill-35" d="M213.1 67.3h1.7v.9c.3-.4.6-.6 1-.8.4-.2.8-.3 1.3-.3.8 0 1.3.2 1.7.7.4.5.6 1.1.6 1.9V74h-1.7v-3.6c0-.6-.1-1.1-.2-1.4-.1-.3-.4-.5-.9-.5-.6 0-1 .2-1.2.7-.2.5-.3 1-.3 1.5V74h-1.7v-6.7" class="st3"/><path id="Fill-36" d="M226.1 68.8c-.2-.1-.4-.1-.5-.2-.2 0-.4-.1-.7-.1-.5 0-1 .2-1.3.6-.3.4-.5.9-.5 1.5 0 .7.2 1.2.5 1.6.3.4.8.6 1.3.6.2 0 .5 0 .7-.1.2-.1.4-.1.7-.2l.1 1.5c-.2.1-.5.1-.8.2-.3 0-.6.1-1 .1-1.1 0-1.9-.3-2.4-1-.6-.7-.9-1.5-.9-2.6 0-1 .3-1.8.9-2.5.6-.7 1.4-1 2.4-1 .6 0 1.2.1 1.7.2l-.2 1.4" class="st3"/><path id="Fill-37" d="M228.3 74h1.7v-6.7h-1.7V74zm0-7.9h1.7v-1.7h-1.7v1.7z" class="st3"/><path id="Fill-38" d="M232.6 74h1.7v-9.7h-1.7z" class="st3"/></g></svg>