<?xml version="1.0" encoding="UTF-8" standalone="no"?>
<!-- Created with Inkscape (http://www.inkscape.org/) -->

<svg
   version="1.1"
   id="svg1"
   width="661.55853"
   height="189.35333"
   viewBox="0 0 661.55854 189.35333"
   xmlns="http://www.w3.org/2000/svg"
   xmlns:svg="http://www.w3.org/2000/svg">
  <defs
     id="defs1">
    <clipPath
       clipPathUnits="userSpaceOnUse"
       id="clipPath2">
      <path
         d="M 0,436.535 H 612.283 V 0 H 0 Z"
         transform="translate(-261.0315,-185.0983)"
         id="path2" />
    </clipPath>
    <clipPath
       clipPathUnits="userSpaceOnUse"
       id="clipPath4">
      <path
         d="M 0,436.535 H 612.283 V 0 H 0 Z"
         transform="translate(-316.05531,-254.0776)"
         id="path4" />
    </clipPath>
    <clipPath
       clipPathUnits="userSpaceOnUse"
       id="clipPath6">
      <path
         d="M 0,436.535 H 612.283 V 0 H 0 Z"
         transform="translate(-369.73961,-186.50541)"
         id="path6" />
    </clipPath>
    <clipPath
       clipPathUnits="userSpaceOnUse"
       id="clipPath8">
      <path
         d="M 0,436.535 H 612.283 V 0 H 0 Z"
         transform="translate(-458.19261,-253.93411)"
         id="path8" />
    </clipPath>
    <clipPath
       clipPathUnits="userSpaceOnUse"
       id="clipPath10">
      <path
         d="M 0,436.535 H 612.283 V 0 H 0 Z"
         transform="translate(-475.55831,-253.88911)"
         id="path10" />
    </clipPath>
    <clipPath
       clipPathUnits="userSpaceOnUse"
       id="clipPath12">
      <path
         d="M 0,436.535 H 612.283 V 0 H 0 Z"
         transform="translate(-540.90781,-254.07981)"
         id="path12" />
    </clipPath>
    <clipPath
       clipPathUnits="userSpaceOnUse"
       id="clipPath14">
      <path
         d="M 0,436.535 H 612.283 V 0 H 0 Z"
         transform="translate(-127.96031,-265.45201)"
         id="path14" />
    </clipPath>
    <clipPath
       clipPathUnits="userSpaceOnUse"
       id="clipPath16">
      <path
         d="M 0,436.535 H 612.283 V 0 H 0 Z"
         transform="translate(-180.9287,-212.48341)"
         id="path16" />
    </clipPath>
    <clipPath
       clipPathUnits="userSpaceOnUse"
       id="clipPath18">
      <path
         d="M 0,436.535 H 612.283 V 0 H 0 Z"
         transform="translate(-127.9602,-159.51501)"
         id="path18" />
    </clipPath>
    <clipPath
       clipPathUnits="userSpaceOnUse"
       id="clipPath20">
      <path
         d="M 0,436.535 H 612.283 V 0 H 0 Z"
         transform="translate(-80.528902,-188.9064)"
         id="path20" />
    </clipPath>
    <clipPath
       clipPathUnits="userSpaceOnUse"
       id="clipPath22">
      <path
         d="M 0,436.535 H 612.283 V 0 H 0 Z"
         transform="translate(-162.47531,-182.5231)"
         id="path22" />
    </clipPath>
    <clipPath
       clipPathUnits="userSpaceOnUse"
       id="clipPath24">
      <path
         d="M 0,436.535 H 612.283 V 0 H 0 Z"
         transform="translate(-103.6148,-247.9423)"
         id="path24" />
    </clipPath>
    <clipPath
       clipPathUnits="userSpaceOnUse"
       id="clipPath26">
      <path
         d="M 0,436.535 H 612.283 V 0 H 0 Z"
         transform="translate(-112.3854,-239.5213)"
         id="path26" />
    </clipPath>
    <clipPath
       clipPathUnits="userSpaceOnUse"
       id="clipPath28">
      <path
         d="M 0,436.535 H 612.283 V 0 H 0 Z"
         transform="translate(-114.9321,-233.38491)"
         id="path28" />
    </clipPath>
    <clipPath
       clipPathUnits="userSpaceOnUse"
       id="clipPath30">
      <path
         d="M 0,436.535 H 612.283 V 0 H 0 Z"
         transform="translate(-120.11501,-202.34131)"
         id="path30" />
    </clipPath>
    <clipPath
       clipPathUnits="userSpaceOnUse"
       id="clipPath32">
      <path
         d="M 0,436.535 H 612.283 V 0 H 0 Z"
         transform="translate(-151.2551,-219.93451)"
         id="path32" />
    </clipPath>
    <clipPath
       clipPathUnits="userSpaceOnUse"
       id="clipPath34">
      <path
         d="M 0,436.535 H 612.283 V 0 H 0 Z"
         transform="translate(-170.35361,-229.5871)"
         id="path34" />
    </clipPath>
    <clipPath
       clipPathUnits="userSpaceOnUse"
       id="clipPath36">
      <path
         d="M 0,436.535 H 612.283 V 0 H 0 Z"
         transform="translate(-123.39521,-184.30551)"
         id="path36" />
    </clipPath>
    <clipPath
       clipPathUnits="userSpaceOnUse"
       id="clipPath38">
      <path
         d="M 0,436.535 H 612.283 V 0 H 0 Z"
         transform="translate(-100.1033,-176.2467)"
         id="path38" />
    </clipPath>
    <clipPath
       clipPathUnits="userSpaceOnUse"
       id="clipPath40">
      <path
         d="M 0,436.535 H 612.283 V 0 H 0 Z"
         transform="translate(-173.58851,-215.1925)"
         id="path40" />
    </clipPath>
    <clipPath
       clipPathUnits="userSpaceOnUse"
       id="clipPath42">
      <path
         d="M 0,436.535 H 612.283 V 0 H 0 Z"
         transform="translate(-127.46141,-172.61241)"
         id="path42" />
    </clipPath>
    <clipPath
       clipPathUnits="userSpaceOnUse"
       id="clipPath44">
      <path
         d="M 0,436.535 H 612.283 V 0 H 0 Z"
         transform="translate(-138.9027,-178.38951)"
         id="path44" />
    </clipPath>
  </defs>
  <g
     id="layer-MC0"
     transform="translate(-64.597282,-192.72008)">
    <path
       id="path1"
       d="m 0,0 c 3.986,0.016 7.506,0.861 10.559,2.538 3.051,1.671 5.621,4.001 7.705,6.98 2.087,2.982 3.651,6.502 4.702,10.564 1.048,4.061 1.564,8.506 1.542,13.332 -0.02,4.788 -0.572,9.175 -1.657,13.157 -1.084,3.981 -2.679,7.409 -4.789,10.285 -2.112,2.877 -4.701,5.102 -7.766,6.681 -3.068,1.577 -6.594,2.359 -10.581,2.341 -4.057,-0.017 -7.611,-0.829 -10.663,-2.433 -3.051,-1.607 -5.614,-3.853 -7.68,-6.747 -2.069,-2.895 -3.618,-6.335 -4.65,-10.326 -1.032,-3.991 -1.538,-8.383 -1.518,-13.173 0.022,-4.826 0.565,-9.264 1.632,-13.316 1.066,-4.052 2.646,-7.56 4.74,-10.523 2.093,-2.963 4.672,-5.27 7.739,-6.915 C -7.618,0.796 -4.056,-0.018 0,0 m 0.015,-3.462 c -5.385,-0.024 -10.415,0.914 -15.092,2.819 -4.676,1.902 -8.744,4.516 -12.203,7.839 -3.458,3.326 -6.185,7.213 -8.18,11.662 -1.996,4.45 -3.003,9.212 -3.025,14.284 -0.015,3.322 0.416,6.519 1.295,9.603 0.879,3.081 2.134,5.954 3.767,8.618 1.632,2.664 3.605,5.091 5.921,7.287 2.316,2.196 4.886,4.079 7.712,5.649 2.827,1.568 5.881,2.788 9.163,3.656 3.284,0.872 6.726,1.315 10.328,1.333 3.602,0.014 7.048,-0.402 10.339,-1.243 3.29,-0.842 6.363,-2.033 9.221,-3.576 2.856,-1.546 5.442,-3.407 7.761,-5.582 2.317,-2.175 4.311,-4.589 5.983,-7.239 1.672,-2.648 2.963,-5.511 3.867,-8.584 0.905,-3.075 1.364,-6.27 1.378,-9.593 0.015,-3.357 -0.418,-6.603 -1.295,-9.735 C 36.076,20.6 34.813,17.667 33.166,14.933 31.515,12.199 29.541,9.707 27.243,7.458 24.945,5.211 22.375,3.277 19.531,1.657 16.688,0.036 13.625,-1.22 10.343,-2.108 7.059,-2.996 3.616,-3.448 0.015,-3.462"
       style="fill:#414142;fill-opacity:1;fill-rule:nonzero;stroke:none"
       transform="matrix(1.3333333,0,0,-1.3333333,336.70341,323.91035)"
       clip-path="url(#clipPath2)" />
    <path
       id="path3"
       d="M 0,0 11.87,0.051 12.176,-70.531 0.305,-70.584 Z"
       style="fill:#414142;fill-opacity:1;fill-rule:nonzero;stroke:none"
       transform="matrix(1.3333333,0,0,-1.3333333,410.06848,231.93795)"
       clip-path="url(#clipPath4)" />
    <path
       id="path5"
       d="m 0,0 c 1.713,0.007 3.407,0.249 5.086,0.73 1.674,0.479 3.174,1.184 4.501,2.116 1.324,0.934 2.386,2.077 3.185,3.426 0.796,1.349 1.191,2.913 1.184,4.696 -0.01,2.133 -0.566,4.028 -1.674,5.685 -1.109,1.655 -2.56,3.172 -4.349,4.548 -1.79,1.37 -3.832,2.666 -6.128,3.88 -2.294,1.215 -4.634,2.424 -7.016,3.64 -2.385,1.213 -4.724,2.49 -7.02,3.827 -2.296,1.334 -4.34,2.829 -6.13,4.483 -1.791,1.652 -3.242,3.499 -4.353,5.542 -1.108,2.039 -1.671,4.388 -1.682,7.045 -0.011,2.657 0.477,5.125 1.464,7.405 0.987,2.276 2.438,4.248 4.356,5.92 1.913,1.667 4.276,2.98 7.088,3.936 2.811,0.954 6.034,1.442 9.671,1.46 3.288,0.011 6.225,-0.323 8.817,-1.012 2.591,-0.689 4.867,-1.711 6.832,-3.067 1.961,-1.353 3.632,-3.025 5.005,-5.012 1.37,-1.988 2.485,-4.29 3.333,-6.911 l -5.965,-2.75 c -0.714,2.128 -1.609,4.074 -2.703,5.834 -1.089,1.762 -2.392,3.269 -3.901,4.521 -1.508,1.252 -3.254,2.215 -5.231,2.89 -1.98,0.671 -4.21,1.004 -6.691,0.994 -2.203,-0.01 -4.125,-0.327 -5.768,-0.946 -1.639,-0.619 -3.008,-1.428 -4.104,-2.429 -1.1,-1.003 -1.915,-2.124 -2.451,-3.367 -0.539,-1.243 -0.804,-2.514 -0.798,-3.807 0.009,-1.821 0.574,-3.487 1.7,-5.003 1.127,-1.516 2.616,-2.942 4.477,-4.279 1.858,-1.34 3.971,-2.633 6.337,-3.882 2.365,-1.248 4.775,-2.515 7.23,-3.798 2.45,-1.281 4.862,-2.617 7.228,-4.008 2.368,-1.388 4.481,-2.909 6.342,-4.561 1.86,-1.653 3.353,-3.467 4.483,-5.438 1.123,-1.97 1.691,-4.18 1.704,-6.625 C 24.068,12.92 23.556,10.321 22.518,7.885 21.481,5.452 19.919,3.328 17.825,1.519 15.737,-0.291 13.136,-1.726 10.03,-2.79 6.923,-3.85 3.305,-4.391 -0.82,-4.408 c -3.358,-0.014 -6.349,0.339 -8.975,1.062 -2.627,0.721 -4.946,1.778 -6.964,3.169 -2.017,1.39 -3.747,3.085 -5.188,5.09 -1.444,2.007 -2.623,4.299 -3.543,6.884 l 6.232,2.598 c 0.741,-2.271 1.738,-4.295 2.989,-6.073 1.249,-1.776 2.696,-3.285 4.345,-4.519 1.65,-1.234 3.478,-2.18 5.495,-2.832 C -4.418,0.314 -2.273,-0.009 0,0"
       style="fill:#414142;fill-opacity:1;fill-rule:nonzero;stroke:none"
       transform="matrix(1.3333333,0,0,-1.3333333,481.64755,322.03421)"
       clip-path="url(#clipPath6)" />
    <path
       id="path7"
       d="m 0,0 0.02,-4.57 -37.15,-0.16 0.109,-25.19 24.875,0.108 0.02,-4.57 -24.873,-0.108 0.134,-31.57 37.15,0.159 0.02,-4.569 -49.003,-0.212 -0.304,70.47 z"
       style="fill:#414142;fill-opacity:1;fill-rule:nonzero;stroke:none"
       transform="matrix(1.3333333,0,0,-1.3333333,599.58488,232.12928)"
       clip-path="url(#clipPath8)" />
    <path
       id="path9"
       d="M 0,0 26.269,-54.705 50.192,0.219 55.701,0.24 24.728,-70.406 21.714,-70.418 -12.212,-0.053 Z"
       style="fill:#414142;fill-opacity:1;fill-rule:nonzero;stroke:none"
       transform="matrix(1.3333333,0,0,-1.3333333,622.73915,232.18928)"
       clip-path="url(#clipPath10)" />
    <path
       id="path11"
       d="m 0,0 11.908,0.049 0.305,-70.8 L 0.307,-70.8 Z"
       style="fill:#414142;fill-opacity:1;fill-rule:nonzero;stroke:none"
       transform="matrix(1.3333333,0,0,-1.3333333,709.87181,231.93501)"
       clip-path="url(#clipPath12)" />
    <path
       id="path13"
       d="M 0,0 C -8.473,0 -16.475,-1.999 -23.577,-5.537 L 0,18.039 23.577,-5.537 C 16.475,-1.999 8.473,0 0,0"
       style="fill:#f39136;fill-opacity:1;fill-rule:nonzero;stroke:none"
       transform="matrix(1.3333333,0,0,-1.3333333,159.27515,216.77208)"
       clip-path="url(#clipPath14)" />
    <path
       id="path15"
       d="M 0,0 C 0,8.473 -1.999,16.475 -5.537,23.577 L 18.039,0 -5.537,-23.577 C -1.999,-16.475 0,-8.473 0,0"
       style="fill:#f39136;fill-opacity:1;fill-rule:nonzero;stroke:none"
       transform="matrix(1.3333333,0,0,-1.3333333,229.89968,287.39688)"
       clip-path="url(#clipPath16)" />
    <path
       id="path17"
       d="M 0,0 C 8.473,0 16.475,1.999 23.577,5.537 L 0,-18.039 -23.577,5.537 C -16.475,1.999 -8.473,0 0,0"
       style="fill:#f39136;fill-opacity:1;fill-rule:nonzero;stroke:none"
       transform="matrix(1.3333333,0,0,-1.3333333,159.27501,358.02141)"
       clip-path="url(#clipPath18)" />
    <path
       id="path19"
       d="M 0,0 -23.577,23.577 0,47.155 C -3.537,40.052 -5.537,32.051 -5.537,23.577 -5.537,15.104 -3.537,7.102 0,0"
       style="fill:#f39136;fill-opacity:1;fill-rule:nonzero;stroke:none"
       transform="matrix(1.3333333,0,0,-1.3333333,96.03328,318.83288)"
       clip-path="url(#clipPath20)" />
    <path
       id="path21"
       d="M 0,0 C -0.015,-0.016 -0.029,-0.033 -0.043,-0.05 -0.029,-0.033 -0.015,-0.016 0,0"
       style="fill:#de4128;fill-opacity:1;fill-rule:nonzero;stroke:none"
       transform="matrix(1.3333333,0,0,-1.3333333,205.29515,327.34395)"
       clip-path="url(#clipPath22)" />
    <path
       id="path23"
       d="M 0,0 C 0.748,-4.263 3.085,-7.926 8.771,-8.421 21.296,-9.473 40.038,-2.25 50.235,2.216 42.874,7.284 33.959,10.258 24.345,10.258 15.463,10.258 7.179,7.717 0.163,3.333 -0.025,2.136 -0.078,1.027 0,0"
       style="fill:#f9b620;fill-opacity:1;fill-rule:nonzero;stroke:none"
       transform="matrix(1.3333333,0,0,-1.3333333,126.81448,240.11835)"
       clip-path="url(#clipPath24)" />
    <path
       id="path25"
       d="m 0,0 c -5.686,0.495 -8.023,4.158 -8.771,8.421 0.457,-5.99 5.295,-9.378 13.257,-13.218 13.525,0.545 14.661,-3.424 19.285,-7.552 11.496,3.906 22.076,9.04 28.566,12.45 C 52.072,0.46 51.811,0.822 51.535,1.173 51.44,1.294 51.346,1.414 51.252,1.535 49.61,3.579 47.8,5.48 45.838,7.215 c -0.077,0.068 -0.155,0.133 -0.232,0.201 -0.587,0.51 -1.184,1.006 -1.795,1.486 -0.09,0.071 -0.181,0.144 -0.273,0.214 -0.677,0.525 -1.366,1.034 -2.073,1.52 0,0.001 0,0.001 -0.001,0.001 C 31.268,6.17 12.525,-1.052 0,0"
       style="fill:#ef8e20;fill-opacity:1;fill-rule:nonzero;stroke:none"
       transform="matrix(1.3333333,0,0,-1.3333333,138.50861,251.34635)"
       clip-path="url(#clipPath26)" />
    <path
       id="path27"
       d="M 0,0 C -11.915,2.671 -15.666,3.842 -20.852,9.749 -22.478,7.953 -23.973,6.037 -25.3,4 c 2.48,-8.392 8.052,-16.049 20.211,-15.68 1.165,0.036 2.348,0.115 3.541,0.224 C -1.74,-7.634 -1.316,-3.734 0,0"
       style="fill:#ef8e20;fill-opacity:1;fill-rule:nonzero;stroke:none"
       transform="matrix(1.3333333,0,0,-1.3333333,141.90421,259.52821)"
       clip-path="url(#clipPath28)" />
    <path
       id="path29"
       d="m 0,0 c -2.08,3.567 -4.921,8.961 -5.878,13.295 -0.451,2.044 -0.746,4.157 -0.853,6.292 -1.193,-0.109 -2.376,-0.187 -3.541,-0.223 -12.159,-0.37 -17.732,7.287 -20.212,15.679 -0.007,-0.01 -0.014,-0.021 -0.021,-0.031 -1.133,-1.743 -2.148,-3.57 -3.038,-5.465 -0.09,-0.191 -0.17,-0.387 -0.258,-0.579 -0.334,-0.738 -0.654,-1.484 -0.95,-2.242 -0.111,-0.285 -0.213,-0.575 -0.319,-0.863 -0.248,-0.678 -0.483,-1.36 -0.701,-2.051 -0.105,-0.337 -0.205,-0.678 -0.303,-1.018 -0.191,-0.659 -0.364,-1.323 -0.524,-1.994 -0.088,-0.366 -0.176,-0.731 -0.254,-1.1 -0.143,-0.667 -0.263,-1.342 -0.377,-2.021 -0.062,-0.373 -0.13,-0.743 -0.182,-1.12 -0.102,-0.721 -0.176,-1.453 -0.244,-2.186 -0.021,-0.225 -0.048,-0.446 -0.065,-0.671 -0.013,-0.169 -0.027,-0.339 -0.039,-0.51 -0.066,-1.008 -0.112,-2.024 -0.112,-3.05 0,-1.723 0.104,-3.422 0.289,-5.096 C -28.719,-1.604 -16.51,-5.124 0,0"
       style="fill:#eb7525;fill-opacity:1;fill-rule:nonzero;stroke:none"
       transform="matrix(1.3333333,0,0,-1.3333333,148.81475,300.91968)"
       clip-path="url(#clipPath30)" />
    <path
       id="path31"
       d="M 0,0 C 4.033,2.34 8.545,4.765 13.629,7.171 11.456,7.16 9.488,7.853 9.488,7.853 c 0,0 1.315,5.193 0.409,7.972 1.759,0.514 4.009,0.466 5.996,0.248 -0.034,0.057 -0.065,0.116 -0.099,0.173 -0.073,0.121 -0.145,0.246 -0.22,0.366 -0.013,0.021 -0.027,0.041 -0.039,0.061 -0.408,0.655 -0.833,1.297 -1.272,1.929 -0.108,0.156 -0.219,0.309 -0.329,0.463 -0.151,0.211 -0.311,0.413 -0.466,0.623 C 6.976,16.279 -3.603,11.144 -15.099,7.238 -12.463,4.886 -8.7,2.481 -0.854,0.831 -0.586,0.774 -0.29,0.48 0,0"
       style="fill:#eb7525;fill-opacity:1;fill-rule:nonzero;stroke:none"
       transform="matrix(1.3333333,0,0,-1.3333333,190.33488,277.46208)"
       clip-path="url(#clipPath32)" />
    <path
       id="path33"
       d="m 0,0 c -0.262,-0.113 -0.514,-0.228 -0.772,-0.342 -1.093,-1.649 -2.954,-2.131 -4.697,-2.141 -5.084,-2.405 -9.596,-4.829 -13.629,-7.169 1.236,-2.047 2.34,-7.619 0.582,-13.97 6.725,4.385 14.183,8.317 21.502,11.971 -0.025,0.208 -0.049,0.417 -0.078,0.625 -0.007,0.054 -0.012,0.107 -0.019,0.16 -0.073,0.528 -0.16,1.053 -0.248,1.574 C 2.6,-9.059 2.563,-8.825 2.52,-8.593 2.5,-8.484 2.484,-8.376 2.462,-8.268 2.318,-7.533 2.155,-6.806 1.977,-6.085 1.868,-5.646 1.743,-5.214 1.622,-4.782 1.524,-4.433 1.427,-4.084 1.321,-3.739 1.179,-3.277 1.031,-2.818 0.875,-2.363 0.772,-2.061 0.663,-1.762 0.555,-1.464 0.385,-0.996 0.214,-0.528 0.028,-0.067 0.02,-0.044 0.009,-0.022 0,0"
       style="fill:#e35e26;fill-opacity:1;fill-rule:nonzero;stroke:none"
       transform="matrix(1.3333333,0,0,-1.3333333,215.79955,264.59195)"
       clip-path="url(#clipPath34)" />
    <path
       id="path35"
       d="m 0,0 c -1.918,8.542 -0.916,14.197 -0.916,14.197 0,0 -1.026,1.546 -2.365,3.839 -16.51,-5.124 -28.718,-1.604 -37.58,5.046 v -0.001 c 0.469,-4.23 1.518,-8.284 3.06,-12.085 0.025,-0.061 0.048,-0.125 0.074,-0.186 0.222,-0.543 0.46,-1.077 0.703,-1.608 0.053,-0.116 0.103,-0.234 0.158,-0.35 0.232,-0.497 0.476,-0.988 0.724,-1.474 0.075,-0.144 0.148,-0.29 0.222,-0.434 0.245,-0.465 0.499,-0.923 0.757,-1.377 0.092,-0.159 0.183,-0.32 0.276,-0.479 0.257,-0.437 0.521,-0.872 0.793,-1.3 0.105,-0.167 0.212,-0.333 0.32,-0.499 0.27,-0.417 0.548,-0.827 0.831,-1.235 0.119,-0.17 0.24,-0.34 0.361,-0.508 0.286,-0.397 0.575,-0.79 0.872,-1.177 0.129,-0.17 0.263,-0.336 0.394,-0.504 0.301,-0.379 0.604,-0.756 0.915,-1.126 0.138,-0.164 0.281,-0.324 0.422,-0.487 0.316,-0.366 0.636,-0.73 0.964,-1.086 0.141,-0.152 0.287,-0.3 0.43,-0.45 0.338,-0.357 0.677,-0.714 1.027,-1.059 0.132,-0.13 0.268,-0.254 0.401,-0.382 0.371,-0.358 0.743,-0.715 1.126,-1.062 0.066,-0.059 0.137,-0.115 0.202,-0.175 0.82,-0.729 1.667,-1.426 2.537,-2.097 C -16.303,-7.357 -8.986,-5.405 0,0"
       style="fill:#e35e26;fill-opacity:1;fill-rule:nonzero;stroke:none"
       transform="matrix(1.3333333,0,0,-1.3333333,153.18835,324.96741)"
       clip-path="url(#clipPath36)" />
    <path
       id="path37"
       d="M 0,0 C 0.009,-0.007 0.019,-0.014 0.027,-0.022 0.45,-0.346 0.881,-0.662 1.316,-0.973 1.389,-1.025 1.461,-1.078 1.534,-1.13 1.542,-1.136 1.55,-1.142 1.558,-1.147 1.977,-1.443 2.403,-1.73 2.832,-2.012 c 0.096,-0.063 0.192,-0.127 0.289,-0.189 0.429,-0.276 0.86,-0.545 1.298,-0.807 0.099,-0.06 0.2,-0.118 0.301,-0.177 0.442,-0.26 0.889,-0.517 1.341,-0.762 0.088,-0.048 0.177,-0.094 0.265,-0.141 0.471,-0.252 0.945,-0.499 1.426,-0.736 0.03,-0.015 0.062,-0.028 0.092,-0.044 0.411,-0.2 0.828,-0.391 1.245,-0.579 0.162,-0.073 0.323,-0.149 0.487,-0.22 0.402,-0.177 0.81,-0.344 1.218,-0.509 0.228,-0.091 0.457,-0.183 0.688,-0.27 0.382,-0.148 0.767,-0.292 1.156,-0.429 0.268,-0.094 0.539,-0.184 0.81,-0.273 0.22,-0.074 0.442,-0.145 0.664,-0.216 0.09,-0.029 0.181,-0.058 0.272,-0.086 4.21,0.89 8.424,2 12.974,3.816 C 25.34,0.621 24.074,4.578 23.292,8.059 14.306,2.655 6.989,0.703 0,0"
       style="fill:#e14f26;fill-opacity:1;fill-rule:nonzero;stroke:none"
       transform="matrix(1.3333333,0,0,-1.3333333,122.13248,335.71248)"
       clip-path="url(#clipPath38)" />
    <path
       id="path39"
       d="m 0,0 c -0.005,0.081 -0.013,0.161 -0.018,0.243 -0.055,0.809 -0.127,1.614 -0.221,2.412 -0.003,0.029 -0.007,0.058 -0.01,0.087 -7.319,-3.652 -14.777,-7.586 -21.501,-11.969 -1.434,-5.182 -4.769,-10.877 -11.507,-15.587 -4.761,-3.901 -6.629,-9.816 -7.23,-15.214 1.86,0.937 3.785,1.998 5.802,3.225 10.496,6.432 19.016,8.868 28.686,11.311 -1.475,-2.559 -3.19,-4.96 -5.114,-7.177 6.971,8.025 11.202,18.495 11.202,29.961 0,0.885 -0.032,1.765 -0.085,2.639 C 0.002,-0.047 0.001,-0.023 0,0"
       style="fill:#e14f26;fill-opacity:1;fill-rule:nonzero;stroke:none"
       transform="matrix(1.3333333,0,0,-1.3333333,220.11275,283.78475)"
       clip-path="url(#clipPath40)" />
    <path
       id="path41"
       d="m 0,0 c -4.551,-1.816 -8.765,-2.925 -12.974,-3.815 0.066,-0.021 0.133,-0.042 0.199,-0.062 0.888,-0.27 1.79,-0.51 2.702,-0.726 0.209,-0.05 0.42,-0.099 0.63,-0.146 0.908,-0.201 1.824,-0.375 2.75,-0.523 0.04,-0.006 0.079,-0.014 0.118,-0.02 0.149,-0.022 0.298,-0.044 0.447,-0.065 0.909,-0.132 1.828,-0.235 2.755,-0.314 0.252,-0.021 0.503,-0.04 0.757,-0.057 1.031,-0.07 2.066,-0.118 3.114,-0.118 0.883,0 1.754,0.041 2.622,0.09 C 1.923,-3.792 0.886,-1.867 0,0"
       style="fill:#de4128;fill-opacity:1;fill-rule:nonzero;stroke:none"
       transform="matrix(1.3333333,0,0,-1.3333333,158.60995,340.55821)"
       clip-path="url(#clipPath42)" />
    <path
       id="path43"
       d="m 0,0 c -2.016,-1.227 -3.942,-2.288 -5.802,-3.226 -0.334,-3.005 -0.278,-5.85 -0.106,-8.097 0.237,0.026 0.478,0.044 0.716,0.073 0.257,0.033 0.516,0.062 0.773,0.098 0.922,0.132 1.837,0.283 2.739,0.469 0.026,0.006 0.051,0.013 0.077,0.018 0.881,0.183 1.749,0.398 2.61,0.63 0.232,0.064 0.46,0.13 0.689,0.196 0.705,0.203 1.402,0.421 2.093,0.656 0.19,0.066 0.382,0.126 0.57,0.193 1.754,0.624 3.459,1.351 5.106,2.176 0.153,0.077 0.305,0.157 0.458,0.234 0.732,0.377 1.454,0.771 2.161,1.185 0.088,0.052 0.177,0.101 0.265,0.153 1.635,0.972 3.204,2.042 4.699,3.203 0.072,0.056 0.143,0.112 0.213,0.167 2.272,1.785 4.372,3.779 6.268,5.955 0.015,0.018 0.029,0.034 0.043,0.05 1.925,2.217 3.64,4.619 5.115,7.178 C 19.016,8.868 10.497,6.432 0,0"
       style="fill:#de4128;fill-opacity:1;fill-rule:nonzero;stroke:none"
       transform="matrix(1.3333333,0,0,-1.3333333,173.86501,332.85541)"
       clip-path="url(#clipPath44)" />
  </g>
</svg>
