<?xml version="1.0" encoding="utf-8"?>
<!-- Generator: Adobe Illustrator 26.5.0, SVG Export Plug-In . SVG Version: 6.00 Build 0)  -->
<svg version="1.1" id="Layer_1" xmlns="http://www.w3.org/2000/svg" xmlns:xlink="http://www.w3.org/1999/xlink" x="0px" y="0px"
	 viewBox="0 0 350 200" style="enable-background:new 0 0 350 200;" xml:space="preserve">
<style type="text/css">
	.st0{fill:#0092BD;}
</style>
<g>
	<g>
		<path class="st0" d="M30.6,18.1c3.6-0.7,44.9-12.3,89.5,16.4V0H0v158h47.2c-20.9-8.2-35.7-28.5-35.7-52.3c0-2.9,0.2-5.8,0.6-8.6
			c0.4-2.8,1.1-5.5,1.9-8.2c7.1-22.9,28.4-39.5,53.7-39.5c11.2,0,21.6,3.3,30.4,9c9.9,6.4,17.7,15.8,22,27V60.8
			C109,46.8,81,23,32.8,22.8c-4.8,0.1-6.6-0.7-6.7-1.6C25.9,20,28.5,18.5,30.6,18.1 M88.1,158H120V126
			C114.4,140.7,102.7,152.3,88.1,158 M105.3,105.7c0-20.8-16.8-37.6-37.6-37.6C46.9,68.1,30,84.9,30,105.7
			c0,20.8,16.9,37.6,37.6,37.6C88.4,143.4,105.3,126.5,105.3,105.7"/>
		<path class="st0" d="M1.7,180.6c0.4-6.3,4.7-9,10.9-9c4.7,0,9.9,1.4,9.9,8.6v14.2c0,1.3,0.6,2,1.9,2c0.4,0,0.7,0,1-0.2v2.8
			c-0.8,0.2-1.2,0.2-2.1,0.2c-3.3,0-3.8-1.9-3.8-4.7h-0.1C17,198,14.8,200,9.6,200c-5,0-9-2.4-9-7.9c0-7.5,7.3-7.8,14.4-8.6
			c2.7-0.3,4.2-0.7,4.2-3.6c0-4.4-3.1-5.5-7-5.5c-4.1,0-7,1.9-7.2,6.2H1.7z M19.2,184.6h-0.1c-0.4,0.8-1.9,1-2.8,1.2
			c-5.6,1-12.5,1-12.5,6.2c0,3.3,2.9,5.3,6,5.3c5,0,9.4-3.2,9.4-8.4V184.6z"/>
		<path class="st0" d="M47.9,180.8c-0.9-4-3.3-6.4-7.6-6.4c-6.2,0-9.4,5.8-9.4,11.4c0,5.7,3.2,11.4,9.4,11.4c4,0,7.4-3.2,7.8-7.6
			h3.3c-0.9,6.5-5,10.4-11.1,10.4c-8.2,0-12.7-6.5-12.7-14.2c0-7.7,4.5-14.2,12.7-14.2c5.8,0,10.1,3,10.9,9.2H47.9z"/>
		<path class="st0" d="M57.9,186.7c0,4.8,2.6,10.6,8.8,10.6c4.8,0,7.4-2.8,8.4-6.9h3.3c-1.4,6.1-4.9,9.6-11.7,9.6
			c-8.5,0-12.1-6.6-12.1-14.2c0-7.1,3.6-14.2,12.1-14.2c8.6,0,12.1,7.5,11.8,15.1H57.9z M75.3,183.9c-0.2-4.9-3.3-9.6-8.5-9.6
			c-5.4,0-8.3,4.7-8.8,9.6H75.3z"/>
		<path class="st0" d="M83,172.4h3v4.5h0.2c1.7-3.3,4.5-5.3,8.8-5.3c3.5,0,6.7,1.7,7.7,5.2c1.6-3.5,5-5.2,8.5-5.2
			c5.9,0,8.9,3.1,8.9,9.4v18.2h-3.3v-18c0-4.4-1.6-6.8-6.3-6.8c-5.7,0-7.3,4.7-7.3,9.7v15.2h-3.3V181c0-3.6-1.4-6.7-5.6-6.7
			c-5.6,0-8,4.3-8,9.9v15H83V172.4z"/>
		<rect x="140.5" class="st0" width="2.4" height="199.2"/>
		<polygon class="st0" points="162.6,0 185.2,0 185.2,2.3 175.3,2.3 175.3,28.5 172.6,28.5 172.6,2.3 162.6,2.3 		"/>
		<path class="st0" d="M188.2,0h2.5v11.4h0.1c1-2.5,3.7-4.1,6.6-4.1c5.8,0,7.5,3,7.5,7.9v13.2h-2.5V15.6c0-3.5-1.2-6.2-5.2-6.2
			c-4,0-6.3,3-6.5,7.1v12h-2.5V0z"/>
		<path class="st0" d="M211.6,18.9c0,3.7,2,8.1,6.8,8.1c3.7,0,5.7-2.1,6.5-5.3h2.5c-1.1,4.7-3.7,7.4-9,7.4c-6.5,0-9.3-5-9.3-10.9
			c0-5.4,2.7-10.9,9.3-10.9c6.6,0,9.3,5.8,9,11.6H211.6z M224.9,16.7c-0.1-3.8-2.5-7.3-6.5-7.3c-4.1,0-6.3,3.6-6.8,7.3H224.9z"/>
		<polygon class="st0" points="162.6,43.2 166.6,43.2 176.5,68.2 186.3,43.2 190.3,43.2 190.3,71.7 187.5,71.7 187.5,47.1 
			187.5,47.1 177.7,71.7 175.2,71.7 165.4,47.1 165.3,47.1 165.3,71.7 162.6,71.7 		"/>
		<path class="st0" d="M214.4,61.4c0,5.9-3.5,10.9-9.7,10.9c-6.3,0-9.7-5-9.7-10.9c0-5.9,3.5-10.9,9.7-10.9
			C210.9,50.5,214.4,55.5,214.4,61.4 M197.5,61.4c0,4.3,2.4,8.8,7.2,8.8c4.8,0,7.2-4.4,7.2-8.8c0-4.3-2.4-8.8-7.2-8.8
			C199.9,52.6,197.5,57,197.5,61.4"/>
		<path class="st0" d="M222,51.1h4.2v2.1H222v13.9c0,1.6,0.2,2.6,2,2.7c0.7,0,1.4,0,2.2-0.1v2.2c-0.8,0-1.5,0.1-2.2,0.1
			c-3.4,0-4.5-1.1-4.5-4.6V53.2h-3.6v-2.1h3.6v-6.2h2.5V51.1z"/>
		<path class="st0" d="M247.6,61.4c0,5.9-3.5,10.9-9.7,10.9c-6.3,0-9.7-5-9.7-10.9c0-5.9,3.5-10.9,9.7-10.9
			C244.1,50.5,247.6,55.5,247.6,61.4 M230.6,61.4c0,4.3,2.4,8.8,7.2,8.8c4.8,0,7.2-4.4,7.2-8.8c0-4.3-2.4-8.8-7.2-8.8
			C233.1,52.6,230.6,57,230.6,61.4"/>
		<path class="st0" d="M251.8,51.1h2.3v4.8h0.1c1.3-3.4,4.1-5.3,7.8-5.1v2.5c-4.5-0.2-7.7,3.1-7.7,7.4v11h-2.5V51.1z"/>
		<path class="st0" d="M278.9,57.6c-0.7-3.1-2.5-4.9-5.8-4.9c-4.8,0-7.2,4.4-7.2,8.8c0,4.3,2.4,8.8,7.2,8.8c3.1,0,5.7-2.5,6-5.9h2.5
			c-0.7,5-3.9,8-8.5,8c-6.3,0-9.7-5-9.7-10.9c0-5.9,3.5-10.9,9.7-10.9c4.4,0,7.7,2.3,8.3,7.1H278.9z"/>
		<path class="st0" d="M283,51.1h2.7l6.8,17.5l6.3-17.5h2.5l-8.9,23.7c-1.5,3.5-2.3,4.5-5.4,4.5c-1,0-1.5,0-1.9-0.2V77
			c0.6,0.1,1.1,0.2,1.7,0.2c2.2,0,2.7-1.3,3.6-3.2l0.9-2.4L283,51.1z"/>
		<path class="st0" d="M318.1,57.6c-0.7-3.1-2.5-4.9-5.8-4.9c-4.8,0-7.2,4.4-7.2,8.8c0,4.3,2.4,8.8,7.2,8.8c3.1,0,5.7-2.5,6-5.9h2.5
			c-0.7,5-3.9,8-8.5,8c-6.3,0-9.7-5-9.7-10.9c0-5.9,3.5-10.9,9.7-10.9c4.4,0,7.7,2.3,8.3,7.1H318.1z"/>
		<rect x="324.8" y="43.2" class="st0" width="2.5" height="28.5"/>
		<path class="st0" d="M334.2,62.1c0,3.7,2,8.1,6.8,8.1c3.7,0,5.7-2.1,6.5-5.3h2.5c-1.1,4.7-3.7,7.4-9,7.4c-6.5,0-9.3-5-9.3-10.9
			c0-5.4,2.8-10.9,9.3-10.9c6.6,0,9.3,5.8,9.1,11.6H334.2z M347.5,59.9c-0.1-3.8-2.5-7.3-6.5-7.3c-4.1,0-6.3,3.6-6.8,7.3H347.5z"/>
		<rect x="162.6" y="86.4" class="st0" width="2.7" height="28.5"/>
		<path class="st0" d="M171.1,94.3h2.5v3.6h0.1c1-2.5,3.7-4.1,6.6-4.1c5.8,0,7.5,3,7.5,7.9v13.2h-2.5V102c0-3.5-1.2-6.2-5.2-6.2
			c-4,0-6.3,3-6.5,7.1v12h-2.5V94.3z"/>
		<path class="st0" d="M211.1,114.9h-2.3V111h-0.1c-1.1,2.7-4.3,4.5-7.3,4.5c-6.3,0-9.3-5-9.3-10.9c0-5.9,3-10.9,9.3-10.9
			c3,0,6.1,1.6,7.1,4.5h0.1V86.4h2.5V114.9z M201.3,113.4c5.3,0,7.2-4.5,7.2-8.8c0-4.3-1.9-8.8-7.2-8.8c-4.8,0-6.7,4.5-6.7,8.8
			C194.6,108.8,196.6,113.4,201.3,113.4"/>
		<path class="st0" d="M233,114.9h-2.3v-3.7h-0.1c-1.3,2.8-4,4.3-7.1,4.3c-5.2,0-7.2-3-7.2-7.8V94.3h2.5v13.4
			c0.1,3.7,1.5,5.7,5.5,5.7c4.3,0,6.2-4.1,6.2-8.3V94.3h2.5V114.9z"/>
		<path class="st0" d="M250.5,100.3c-0.1-3.1-2.5-4.5-5.4-4.5c-2.2,0-4.9,0.9-4.9,3.5c0,2.2,2.5,3,4.3,3.5l3.3,0.8
			c2.9,0.4,5.9,2.1,5.9,5.7c0,4.5-4.4,6.2-8.2,6.2c-4.8,0-8-2.2-8.5-7.3h2.5c0.2,3.4,2.7,5.1,6.1,5.1c2.4,0,5.6-1,5.6-3.9
			c0-2.4-2.2-3.2-4.5-3.7l-3.2-0.7c-3.3-0.8-5.7-2-5.7-5.5c0-4.2,4.1-5.8,7.7-5.8c4.1,0,7.3,2.2,7.5,6.6H250.5z"/>
		<path class="st0" d="M261.7,94.3h4.2v2.1h-4.2v13.9c0,1.6,0.2,2.6,2,2.7c0.7,0,1.4,0,2.2-0.1v2.2c-0.8,0-1.5,0.1-2.2,0.1
			c-3.3,0-4.5-1.1-4.5-4.6V96.4h-3.6v-2.1h3.6v-6.2h2.5V94.3z"/>
		<path class="st0" d="M269.6,94.3h2.3v4.8h0.1c1.3-3.4,4.1-5.3,7.8-5.1v2.5c-4.5-0.2-7.7,3.1-7.7,7.4v11h-2.5V94.3z"/>
		<path class="st0" d="M281.7,94.3h2.7l6.8,17.5l6.3-17.5h2.5l-8.9,23.7c-1.5,3.5-2.3,4.5-5.4,4.5c-1,0-1.5,0-1.9-0.2v-2.1
			c0.6,0.1,1.1,0.2,1.7,0.2c2.2,0,2.7-1.3,3.6-3.2l0.9-2.4L281.7,94.3z"/>
		<rect x="315.9" y="86.4" class="st0" width="2.7" height="28.5"/>
		<path class="st0" d="M324.3,94.3h2.5v3.6h0.1c1-2.5,3.7-4.1,6.6-4.1c5.8,0,7.5,3,7.5,7.9v13.2h-2.5V102c0-3.5-1.2-6.2-5.2-6.2
			c-4,0-6.3,3-6.5,7.1v12h-2.5V94.3z"/>
		<polygon class="st0" points="162.6,129.6 182.3,129.6 182.3,131.9 165.3,131.9 165.3,142.2 181.2,142.2 181.2,144.5 165.3,144.5 
			165.3,155.8 182.5,155.8 182.5,158.1 162.6,158.1 		"/>
		<path class="st0" d="M202.3,158.1H200v-3.7h-0.1c-1.3,2.7-4,4.3-7.1,4.3c-5.2,0-7.2-3-7.2-7.8v-13.4h2.5v13.4
			c0.1,3.7,1.5,5.7,5.5,5.7c4.3,0,6.2-4.1,6.2-8.3v-10.8h2.5V158.1z"/>
		<path class="st0" d="M207.5,137.5h2.3v4.8h0.1c1.3-3.4,4.1-5.3,7.8-5.1v2.5c-4.5-0.2-7.7,3.1-7.7,7.4v11h-2.5V137.5z"/>
		<path class="st0" d="M238.5,147.8c0,5.9-3.5,10.9-9.7,10.9c-6.3,0-9.7-5-9.7-10.9c0-5.9,3.5-10.9,9.7-10.9
			C235,136.9,238.5,141.9,238.5,147.8 M221.5,147.8c0,4.3,2.4,8.8,7.2,8.8c4.8,0,7.2-4.4,7.2-8.8c0-4.3-2.4-8.8-7.2-8.8
			C224,139,221.5,143.4,221.5,147.8"/>
		<path class="st0" d="M242.7,137.5h2.3v3.9h0.1c1.2-2.8,4-4.5,7.3-4.5c6.3,0,9.2,5,9.2,10.9c0,5.9-3,10.9-9.2,10.9
			c-3,0-6.1-1.5-7.1-4.5h-0.1v11.5h-2.5V137.5z M252.5,139c-5.6,0-7.2,4.1-7.2,8.8c0,4.3,1.9,8.8,7.2,8.8c4.8,0,6.7-4.5,6.7-8.8
			C259.2,143.5,257.2,139,252.5,139"/>
		<path class="st0" d="M267.7,148.5c0,3.7,2,8.1,6.8,8.1c3.7,0,5.7-2.1,6.5-5.3h2.5c-1.1,4.7-3.7,7.4-9,7.4c-6.5,0-9.3-5-9.3-10.9
			c0-5.4,2.7-10.9,9.3-10.9c6.6,0,9.2,5.8,9.1,11.6H267.7z M281,146.3c-0.1-3.8-2.5-7.3-6.5-7.3c-4.1,0-6.3,3.6-6.8,7.3H281z"/>
	</g>
</g>
</svg>
