<svg xmlns="http://www.w3.org/2000/svg" viewBox="0 0 117.92 28.02"><defs><style>.cls-1{fill:#fff;}.cls-2{fill:#fce400;}.cls-3{fill:#d22333;}</style></defs><g id="Capa_2" data-name="Capa 2"><g id="Capa_1-2" data-name="Capa 1"><rect class="cls-1" width="28.02" height="28.02"/><rect class="cls-2" x="1.28" y="1.28" width="25.47" height="25.47"/><path class="cls-3" d="M26.75,6.17,20.63,7.39a11.76,11.76,0,0,1-6.39-.82,12.11,12.11,0,0,0-4-1.47,9.79,9.79,0,0,0-2.86,0l-4.08.73-2,.35V1.54a5.68,5.68,0,0,1,3.14-.08,8.26,8.26,0,0,1,1.69.76A14,14,0,0,0,9.58,3.81a11.17,11.17,0,0,0,5.33,0l3.83-.69,4-.72,4-.83Z"/><path class="cls-3" d="M6.61,20.87a11.88,11.88,0,0,1,7.73.82,9.82,9.82,0,0,0,6.71,1.22l5.7-1V26.5a6.61,6.61,0,0,1-2.43.2A4.92,4.92,0,0,1,23,26.34l-3-1.55a9.84,9.84,0,0,0-5.73-.67L2.11,26.36l-.83.14V21.88l1-.2L5,21.18l1.64-.31"/><path class="cls-3" d="M1.28,13.47V9.92L11.8,8a12.53,12.53,0,0,1,7.37,1.33,10.16,10.16,0,0,0,6.85.74l.73-.15v3.55l-2.33-1.32a9.87,9.87,0,0,0-5.52-.82l-6.47,1.18-2.33.42L4.21,14a4.12,4.12,0,0,1-2.93-.55"/><path class="cls-3" d="M26.75,14.69v3.5L16.31,20.11A12.51,12.51,0,0,1,9,18.78,10.1,10.1,0,0,0,2.1,18l-.82.15v-3.5L3.69,16a9.91,9.91,0,0,0,5.53.82l6.47-1.18L18,15.18l5.9-1.09a4.17,4.17,0,0,1,2.84.6"/><path d="M29.29,15.13V26.75h3.89c3.93,0,6.25-2.16,6.25-5.82s-2.37-5.8-6.39-5.8Zm2.63,9.27V17.45h1.13c2.36,0,3.64,1.23,3.64,3.48S35.46,24.4,33,24.4Z"/><polygon points="40.38 15.13 40.38 26.75 48.08 26.75 48.08 24.4 42.97 24.4 42.97 21.75 48.02 21.75 48.02 19.4 42.97 19.4 42.97 17.46 48.08 17.46 48.08 15.13 40.38 15.13"/><path d="M58.06,15.13,53.83,26.75h2.75l1.25-3.54h3.56l1.23,3.54h2.81L61.11,15.13ZM60.69,21H58.51l.28-.81A11.33,11.33,0,0,0,59.17,19c0-.1.11-.31.2-.63l.12-.43c0-.05,0-.18.1-.38.12.48.21.83.4,1.41l.21.64.19.57Z"/><path d="M65.88,26.75h2.66V22h.34c1.67,0,1.84.17,3,3.05.12.31.19.5.24.59l.23.54a3.73,3.73,0,0,0,.28.59h3.18a14.93,14.93,0,0,1-2.21-4.06A2.47,2.47,0,0,0,72,21.05a2.78,2.78,0,0,0,2.13-2.79c0-2.08-1.38-3.13-4.15-3.13H65.88Zm2.66-7V17.34h1.19c1.13,0,1.64.37,1.64,1.2s-.56,1.24-1.68,1.24Z"/><path d="M77.84,15.13,73.61,26.75h2.75l1.25-3.54h3.56l1.23,3.54h2.81L80.89,15.13ZM80.47,21H78.29l.28-.81c.23-.67.31-.9.38-1.18a5.36,5.36,0,0,0,.19-.63l.13-.43c0-.05,0-.18.1-.38.12.48.21.83.4,1.41l.21.64.19.57Z"/><path d="M94,20.81H91.42v3.66A3.55,3.55,0,0,1,86.85,21a3.61,3.61,0,0,1,3.85-3.78,6.1,6.1,0,0,1,3.31,1V15.55a9.37,9.37,0,0,0-3.53-.7c-3.76,0-6.38,2.53-6.38,6.15s2.56,6,6.38,6A10.52,10.52,0,0,0,94,26.38Z"/><path d="M107.13,20.91a6,6,0,0,0-12.07,0,6,6,0,0,0,12.07,0m-2.77,0c0,2.19-1.29,3.66-3.24,3.66S97.81,23.12,97.81,21s1.31-3.66,3.26-3.66,3.29,1.46,3.29,3.66"/><path d="M108.13,15.13V26.75h2.65V21.4l0-.61,0-.66a5.16,5.16,0,0,0,0-.56l0-.43c.09.17.14.29.19.38a4.81,4.81,0,0,1,.32.54l.47.8s.19.3.5.78l.45.74,2.84,4.37h2.46V15.13h-2.65v4.3c0,1.08,0,1.92.09,2.62,0,.08,0,.22,0,.41a20.28,20.28,0,0,0-1.46-2.5l-3.15-4.83Z"/><path d="M39,6.94H36.42V10.6a3.37,3.37,0,0,1-1.11.16A3.45,3.45,0,0,1,31.86,7.1a3.61,3.61,0,0,1,3.85-3.78,6,6,0,0,1,3.3,1V1.68A9.37,9.37,0,0,0,35.48,1C31.72,1,29.1,3.51,29.1,7.13s2.57,6,6.38,6A10.52,10.52,0,0,0,39,12.51Z"/><path d="M52.12,7a6,6,0,0,0-12.07,0A6,6,0,0,0,52.12,7m-2.77,0c0,2.2-1.29,3.66-3.24,3.66S42.8,9.26,42.8,7.08s1.3-3.66,3.25-3.66,3.3,1.46,3.3,3.66"/><path d="M53,1.26V12.88h4.8c2.56,0,4.06-1.27,4.06-3.45a3,3,0,0,0-2.42-3A2.55,2.55,0,0,0,61,4c0-1.84-1.24-2.75-3.75-2.75ZM55.63,5.6V3.47h1.13c1.24,0,1.68.28,1.68,1S58,5.6,56.85,5.6Zm0,4.91V7.81H57.1c1.37,0,1.95.38,1.95,1.36s-.56,1.34-1.85,1.34Z"/><rect x="62.4" y="1.26" width="2.59" height="11.62"/><polygon points="66.12 1.26 66.12 12.88 73.82 12.88 73.82 10.53 68.72 10.53 68.72 7.88 73.77 7.88 73.77 5.53 68.72 5.53 68.72 3.6 73.82 3.6 73.82 1.26 66.12 1.26"/><path d="M75,12.88h2.66V8.11h.33c1.68,0,1.85.17,3,3,.13.32.2.51.25.6l.23.54a5.33,5.33,0,0,0,.27.59h3.19a14.93,14.93,0,0,1-2.21-4.06,2.5,2.5,0,0,0-1.55-1.64A2.76,2.76,0,0,0,83.2,4.4c0-2.09-1.37-3.14-4.14-3.14H75Zm2.66-7V3.47H78.8c1.13,0,1.64.37,1.64,1.2s-.56,1.24-1.68,1.24Z"/><path d="M84.24,1.26V12.88h2.64v-6l0-.66a3.88,3.88,0,0,0,0-.56V5.27c.08.17.14.29.19.38a6.14,6.14,0,0,1,.31.54l.47.8.51.79.45.73,2.84,4.37H94V1.26H91.38v4.3c0,1.08,0,1.92.08,2.62,0,.08,0,.22,0,.41A23.22,23.22,0,0,0,90,6.09L86.88,1.26Z"/><path d="M107.15,7a6,6,0,0,0-12.07,0,6,6,0,0,0,12.07,0m-2.77,0c0,2.2-1.29,3.66-3.24,3.66s-3.31-1.48-3.31-3.66,1.3-3.66,3.26-3.66,3.29,1.46,3.29,3.66"/></g></g></svg>