<svg xmlns="http://www.w3.org/2000/svg" xml:space="preserve" id="Capa_1" x="0" y="0" style="enable-background:new 0 0 520.2 675.8" version="1.1" viewBox="0 0 520.2 675.8"><style>.st1{fill:#fff}.st2{fill:#1d1d1b}</style><path d="M49 49.1h422.9V472H49z" style="fill:#de0029"/><path d="m128.5 191.5-8.5 26.7-28 .3 22.7 16.2-8.2 26.1 22-16 22.4 15.7-8.6-26.1 22.4-16.6-27.5.4zM216.6 191.5l-8.5 26.7-28 .3 22.7 16.2-8.2 26.1 22-16 22.3 15.7-8.5-26.1 22.4-16.6-27.6.4zM305 191.5l-8.5 26.7-28 .3 22.7 16.2-8.2 26.1 22-16 22.4 15.7-8.6-26.1 22.4-16.6-27.4.4zM260.5 252.3 252 279l-28 .3 22.7 16.2-8.2 26.1 22-16 22.4 15.7-8.5-26.1 22.3-16.5-27.5.3zM172.3 252.3l-8.5 26.7-28 .3 22.7 16.2-8.2 26.1 22-16 22.3 15.7-8.5-26.1 22.3-16.5-27.4.3zM349.1 252.3l-8.5 26.7-28 .3 22.7 16.2-8.2 26.1 22-16 22.4 15.7-8.6-26.1 22.4-16.5-27.4.3zM393.4 191.5l-8.6 26.7-27.9.3 22.7 16.2-8.2 26.1 22-16 22.3 15.7-8.5-26.1 22.3-16.6-27.4.4z" class="st1"/><path d="M81.4 519c-.3-1.9-1.8-7.8-8.5-7.8-7.6 0-10.1 7.4-10.1 14.5s2.4 14.5 10.1 14.5c5.5 0 7.6-3.8 8.6-8.8h16c0 10.6-8.6 22-24.1 22-17.1 0-26.8-12-26.8-27.6 0-16.6 10.5-27.6 26.8-27.6 14.5.1 22.5 7.7 23.9 20.9H81.4zM123.3 553.1c-14.4 0-20.9-9.5-20.9-20.2s6.5-20.1 20.9-20.1c14.4 0 20.9 9.5 20.9 20.1 0 10.6-6.5 20.2-20.9 20.2m0-29.7c-5.5 0-6.3 5.4-6.3 9.5s.7 9.5 6.3 9.5c5.5 0 6.3-5.5 6.3-9.5 0-4.1-.8-9.5-6.3-9.5M150.5 513.7h14.1v5.1h.1c3-4.4 7.2-6.1 12.6-6.1 4.1 0 8.6 2.1 10.3 6 .6-.4 3.5-6 13.1-6 9.8 0 13.2 6.8 13.2 13V552h-14.6v-20.8c0-3.6-.4-6.9-4.8-6.9-3.7 0-5 2.9-5 6.9V552h-14.6v-20.8c0-3.6-.4-6.9-4.8-6.9-3.7 0-5 2.9-5 6.9V552h-14.6v-38.3zM261.6 552.1h-14.1v-4.9h-.1c-2.7 3.8-6.6 5.8-12.5 5.8-6.9 0-13.2-4.2-13.2-13v-26.3h14.6v20.1c0 4.4.5 7.5 4.8 7.5 2.5 0 5.8-1.3 5.8-7.4v-20.2h14.6v38.4zM269.6 513.7h14.1v4.9h.1c2.7-3.8 6.7-5.8 12.5-5.8 6.9 0 13.2 4.2 13.2 13v26.3h-14.6V532c0-4.4-.5-7.5-4.8-7.5-2.5 0-5.8 1.3-5.8 7.4v20.2h-14.6v-38.4zM332.4 509.6h-14.6v-10.3h14.6v10.3zm-14.6 4.2h14.6v38.4h-14.6v-38.4zM380.7 552.1h-14.1v-4.2h-.1c-1.9 2.4-4.1 5.2-11.2 5.2-10.9 0-16.1-10.7-16.1-20.3 0-9 3.5-20 16.3-20 4.4 0 8.3 1.9 10.5 5.2h.1v-18.6h14.6v52.7zm-20.6-28.7c-5.2 0-6.4 4.9-6.4 9.5s1.2 9.5 6.4 9.5 6.4-5 6.4-9.5c.1-4.5-1.1-9.5-6.4-9.5M426.1 543.5c0 2.9.1 6.1 1.8 8.6H413c-.4-1-.6-2.6-.5-3.6h-.1c-3.1 3.5-7.6 4.6-12.3 4.6-7.4 0-13.5-3.5-13.5-11.6 0-12.1 14.2-11.7 21.7-13.1 2-.4 4-1 4-3.4 0-2.6-2.4-3.6-4.8-3.6-4.5 0-5.4 2.3-5.5 3.9h-13.6c.4-10.8 10.6-12.6 19.7-12.6 18.3 0 18.2 7.6 18.2 15v15.8zm-14.1-8.6c-1.8.9-3.8 1.4-5.8 1.9-3.3.7-5 1.6-5 4.1 0 1.8 1.9 3.5 4.6 3.5 3.3 0 5.9-2 6.1-6v-3.5zM473.8 552.1h-14.1v-4.2h-.1c-1.9 2.4-4.1 5.2-11.2 5.2-10.9 0-16.1-10.7-16.1-20.3 0-9 3.5-20 16.3-20 4.4 0 8.3 1.9 10.5 5.2h.1v-18.6h14.6v52.7zm-20.6-28.7c-5.2 0-6.4 4.9-6.4 9.5s1.2 9.5 6.4 9.5 6.4-5 6.4-9.5-1.2-9.5-6.4-9.5M93 625.6H77.2v-4.7H77c-2.1 2.7-4.5 5.8-12.6 5.8-12.2 0-18-12-18-22.7 0-10.1 3.9-22.3 18.3-22.3 4.9 0 9.3 2.2 11.7 5.8h.2v-20.8H93v58.9zm-23-32.1c-5.9 0-7.2 5.5-7.2 10.6s1.3 10.7 7.2 10.7 7.2-5.5 7.2-10.7c0-5-1.3-10.6-7.2-10.6M115.8 607.8c.4 4.9 3.2 8.4 8.3 8.4 2.7 0 5.5-1 6.9-3.1h15.3c-3.3 9.3-12.3 13.6-22.1 13.6-13.7 0-24.1-8.1-24.1-22.4 0-12.5 9.1-22.7 22.7-22.7 17 0 24.4 9.5 24.4 26.2h-31.4zm15.7-8.5c0-4-3-7.2-7.2-7.2-4.9 0-7.7 2.6-8.4 7.2h15.6zM181.8 566.6h25.9l8.4 34.7h.2l8.4-34.7h25.9v59h-17.2v-37.9h-.1L223 625.6h-13.6l-10.2-37.9h-.2v37.9h-17.2zM301.6 616c0 3.2.2 6.9 2 9.6h-16.7c-.4-1.2-.7-2.9-.6-4h-.2c-3.5 4-8.5 5.1-13.8 5.1-8.3 0-15.1-4-15.1-13 0-13.6 15.9-13.1 24.2-14.6 2.2-.4 4.5-1.1 4.5-3.8 0-2.9-2.7-4-5.4-4-5 0-6 2.6-6.1 4.4h-15.2c.5-12.1 11.9-14.1 22.1-14.1 20.5 0 20.3 8.5 20.3 16.8V616zm-15.7-9.6c-2 1-4.2 1.6-6.5 2.1-3.6.8-5.5 1.7-5.5 4.6 0 2 2.1 4 5.1 4 3.7 0 6.6-2.2 6.9-6.7v-4zM354.9 625.6h-15.8v-4.7h-.2c-2.1 2.7-4.5 5.8-12.6 5.8-12.2 0-18-12-18-22.7 0-10.1 3.9-22.3 18.3-22.3 4.9 0 9.3 2.2 11.7 5.8h.2v-20.8h16.4v58.9zm-23-32.1c-5.9 0-7.2 5.5-7.2 10.6s1.3 10.7 7.2 10.7 7.2-5.5 7.2-10.7c0-5-1.3-10.6-7.2-10.6M363.8 582.7h15.7v6.9h.2c2.6-5.1 6.1-7.9 12.1-7.9 1.7 0 3.2.2 4.8.7v14.5c-1.7-.6-3.1-1.1-6.5-1.1-6.4 0-9.9 3.8-9.9 13v17h-16.4v-43.1zM417.3 578.1h-16.4v-11.5h16.4v11.5zm-16.4 4.6h16.4v42.9h-16.4v-42.9zM471.3 625.6h-15.8v-4.7h-.2c-2.1 2.7-4.5 5.8-12.6 5.8-12.2 0-18-12-18-22.7 0-10.1 3.9-22.3 18.3-22.3 4.9 0 9.3 2.2 11.7 5.8h.2v-20.8h16.4v58.9zm-23-32.1c-5.9 0-7.2 5.5-7.2 10.6s1.3 10.7 7.2 10.7 7.2-5.5 7.2-10.7c0-5-1.4-10.6-7.2-10.6" class="st2"/></svg>