<?xml version="1.0" encoding="utf-8"?>
<!-- Generator: Adobe Illustrator 24.0.3, SVG Export Plug-In . SVG Version: 6.00 Build 0)  -->
<svg version="1.1" id="Lager_1" xmlns="http://www.w3.org/2000/svg" xmlns:xlink="http://www.w3.org/1999/xlink" x="0px" y="0px"
	 viewBox="0 0 300 202" style="enable-background:new 0 0 300 202;" xml:space="preserve">
<style type="text/css">
	.st0{fill:#1D1D1B;}
</style>
<g>
	<path class="st0" d="M143.5,51.4h-31.2c0,0-31.9,85.4-37.7,101c-5.9-15.6-38-101-38-101H0l50.6,133.5c5.3,14.2,13,17,23.7,17
		s18.5-2.8,23.7-17l50.9-133.5H143.5"/>
	<path class="st0" d="M191.7,15.9h-29.9v136.2c0,30.8,17.6,49.9,46,49.9h38.9v-32.5h-35.3c-12,0-15.9-3.4-15.9-14.1V84.1h51.2V51.6
		h-51.2V15.9H191.7"/>
	<path class="st0" d="M261,19.5c0,9.5,6.8,19.5,19.5,19.5S300,29,300,19.5c0-9.5-6.8-19.5-19.5-19.5S261,10.1,261,19.5"/>
	<polygon class="st0" points="293.6,51.6 263.6,51.6 263.6,202 297.3,202 297.3,51.6 	"/>
</g>
</svg>
