<svg xmlns="http://www.w3.org/2000/svg" xmlns:xlink="http://www.w3.org/1999/xlink" version="1.1" id="Layer_1" x="0px" y="0px" style="enable-background:new 0 0 209.5 78.2;" xml:space="preserve" viewBox="5.3 7.9 199 62.16">
<path d="M15.5,13.4H10v2.9h5v3.8h-5V27H5.5V9.6h10V13.4z M17.1,15.2h4.2v6.3c0,1.5,0.4,2.6,2.1,2.6s2.1-1.1,2.1-2.6v-6.3h4.2v7.1  c0,3.9-2.7,5.1-6.3,5.1c-3.5,0-6.3-1.2-6.3-5.1C17.1,22.3,17.1,15.2,17.1,15.2z M35.9,15.2v1.5c1-1.4,2.2-1.9,3.8-1.9  c3.2,0,4.4,2,4.4,4.9V27H40v-5.8c0-1.1,0.2-3.1-1.9-3.1c-1.7,0-2.2,1.3-2.2,2.7V27h-4.2V15.2H35.9z M55.1,27v-1.3  c-0.8,1.2-2.2,1.7-3.6,1.7c-3.5,0-6-2.9-6-6.3s2.4-6.3,5.9-6.3c1.4,0,2.8,0.5,3.7,1.5V7.9h4.2V27H55.1z M52.6,18.4  c-1.7,0-2.7,1.2-2.7,2.7s1,2.6,2.7,2.6s2.7-1.2,2.7-2.6C55.3,19.6,54.3,18.4,52.6,18.4z M67.4,18.4c-1.7,0-2.7,1.2-2.7,2.7  s1,2.6,2.7,2.6s2.7-1.2,2.7-2.6C70.1,19.6,69.1,18.4,67.4,18.4z M74.2,15.2V27H70v-1.3c-0.8,1.2-2.2,1.7-3.6,1.7c-3.5,0-6-2.9-6-6.3  s2.4-6.3,5.9-6.3c1.4,0,2.8,0.5,3.7,1.5v-1.2L74.2,15.2L74.2,15.2z M84.8,15.5V19c-0.6-0.5-1.4-0.8-2.2-0.8c-1.6,0-2.9,1.2-2.9,2.9  c0,1.7,1.2,2.9,2.9,2.9c0.7,0,1.5-0.3,2.1-0.8v3.5c-0.9,0.5-1.9,0.7-2.9,0.7c-3.5,0-6.4-2.6-6.4-6.2c0-3.8,2.9-6.4,6.6-6.4  C83,14.8,84,15,84.8,15.5z M90.9,15.2V27h-4.2V15.2H90.9z M88.8,8.3c1.3,0,2.3,1.1,2.3,2.4S90,13,88.8,13c-1.3,0-2.3-1.1-2.3-2.3  C86.5,9.3,87.5,8.3,88.8,8.3z M99.2,14.8c3.8,0,7.1,2.3,7.1,6.3s-3.3,6.3-7.1,6.3c-3.8,0-7.1-2.3-7.1-6.3  C92.1,17,95.4,14.8,99.2,14.8z M99.2,18.4c-1.7,0-2.7,1.2-2.7,2.7s1,2.6,2.7,2.6s2.7-1.2,2.7-2.6C101.9,19.6,100.9,18.4,99.2,18.4z   M102.7,9.9l-3.9,3.5L96.9,12l3.2-4L102.7,9.9z M111.7,15.2v1.5c1-1.4,2.2-1.9,3.8-1.9c3.2,0,4.4,2,4.4,4.9V27h-4.2v-5.8  c0-1.1,0.2-3.1-1.9-3.1c-1.7,0-2.2,1.3-2.2,2.7V27h-4.2V15.2H111.7z M137.6,51.3c0-1.5,8.2-2.9,20-3.4c0,0,1.5-6.2,8.8-12.1  c4.7-3.7,9.5-4.8,11.9-5.7c1.3-0.5,2.8-0.7,3.5-0.8c0.8,0,0.4,0.1,2.5,0.1c1.7,0.3-0.1,0.3,2.1,0.3c1.5,0.3,5.5,2.4,7.3,3.9  c0.7,0.4,1.1,0.8,1.3,1.8c0.1,0.4,0.4,0.6,0.3,1.2c-0.1,0.2-0.3,0.3-0.3,0.6c-0.1,0.2,0.1,0.4,0.1,0.6c-0.1,0.3-0.5,0.9-0.7,1.2  s-1,0.9-1.4,0.8c-0.7-0.2-1.3-0.8-2.4-0.8c-1.8,0-3.4-0.2-5.1,0.1c-0.4,0.1-0.6,0.1-1.2,0.2c-0.5,0.1-0.9,0.3-1.5,0.5  c-0.5,0.1-0.8,0.2-1.2,0.3s-0.4,0.2-0.7,0.1c-0.2,0-0.5,0.2-0.7,0.3c-0.5,0.3-1.2,0.4-1.7,0.7c-0.6,0.3-1.2,0.5-1.8,1  c-0.1,0.1-0.5,0.4-0.6,0.4c-0.3,0.2-0.4,0.2-0.6,0.5c-0.2,0.3-0.6,0.3-0.9,0.5c-0.6,0.5-1.2,1.2-1.8,1.8c-0.1,0.2-0.4,0.2-0.6,0.3  c-0.3,0.2-0.3,0.5-0.6,0.7c-0.4,0.3-0.7,0.6-1,1h0.4c18.4,0,33.3,1.7,33.3,3.7s-14.9,3.7-33.3,3.7c-1.5,0-3,0-4.5,0  c-0.1,0.4-0.2,0.9-0.1,1.4c0,0.2,0.1,0.2,0.1,0.4c-0.1,0.6-0.2,1.2,0.4,1.9c0.2,0.3,0.2,0.6,0.4,0.8s0.2,0.6,0.4,0.7  c0.2,0.2,0.4,0.5,0.6,0.7c0.2,0.3,0.4,0.5,0.7,0.7c0.5,0.3,0.7,0.5,1.2,0.8c0.4,0.2,0.2,0.5,0.7,0.6c0.2,0.1,0.5,0.2,0.7,0.3  c0.2,0,0.5,0.2,0.7,0.4c0.6,0.5,1.1,0.5,2,0.6c0.5,0.2,1.1,0.4,1.6,0.5c0.4,0.1,0.6,0,1,0.1c0.3,0,0.4,0.2,0.7,0.2  c0.6,0.1,0.8,0.1,1.3,0c0.7,0.1,1.3,0.2,2,0.1c0.3-0.1,0.7,0,0.9,0c0.4,0,0.8-0.1,1.2-0.2c0.8-0.1,1,0,1.6-0.1  c0.5-0.1,1.2-0.3,1.7-0.5c1.7-0.5,2.3-0.4,3.8-0.9c0.4-0.2,1.3-0.5,1.6-0.6c0.4-0.2,1-0.3,1.4-0.5c0.6-0.2,1.2-0.6,1.8-0.5  c-0.1,0.2-0.1,0.3-0.3,0.3c0,0.6-0.4,0.8-0.8,1c-0.3,0.1-0.5,0.5-0.8,0.6c-0.2,0.2-0.5,0.1-0.7,0.3c-0.3,0.2-0.4,0.7-0.6,0.9  c-0.5,0.5-1.3,0.7-1.9,1.1c-0.7,0.3-0.9,0.6-1.5,0.9c-0.3,0.2-0.6,0.1-0.8,0.3c-0.1,0.1-0.3,0.2-0.4,0.3c-0.3,0.2-0.4,0.1-0.7,0.2  s-0.7,0.4-1,0.5c-0.4,0.2-0.7,0-1.1,0.1c-0.4,0.1-0.7,0.3-1.1,0.4c-0.2,0.1-0.5,0-0.8,0.1c-0.2,0.1-0.4,0.2-0.7,0.3  c-0.3,0.1-0.5,0-0.9,0.1s-0.6,0.3-1,0.3c-1.4-0.1-1.2,0.4-2.6,0.5c-3,0.5-7-0.3-7.8-0.6c-0.7-0.1-1.1-0.2-2.4-0.8  c-4.8-2-7.8-7.6-8.2-8.2c-0.5-0.6-0.9-2.9-1.2-3.5c-0.2-0.6-0.3-1.7-0.3-2.3C145.5,54.1,137.6,52.8,137.6,51.3z M196.2,57.9  c0-1.4,1.2-2.6,2.6-2.6c1.4,0,2.6,1.2,2.6,2.6c0,1.4-1.2,2.6-2.6,2.6S196.2,59.3,196.2,57.9z M5.8,44H11v14.1H5.8V44z M56.5,44v1.6  c0,0,1.1-1.9,3.8-2.1c0.7-0.1,1.5,0,2.1,0.2v5c-0.5-0.4-2.1-0.4-2.8-0.2c-3.3,0.6-3.1,3.3-3.1,4.9v4.8h-5.2V44H56.5z M107.7,43.9  v20.8h-5.2V43.9H107.7z M5.3,39.5c0-1.7,1.4-3.1,3.1-3.1s3.1,1.4,3.1,3.1c0,1.7-1.4,3.1-3.1,3.1C6.7,42.5,5.3,41.2,5.3,39.5z   M14.2,58.1V36.2h5.2v9.2c1.1-1.1,2.7-1.9,4.5-1.9c4.7,0,6.8,3.9,6.8,7.6c0,3.9-1.9,7.3-6.8,7.3c-1.7,0-3.5-0.8-4.5-2v1.7H14.2z   M19.2,51c0,1.7,1.3,3.1,2.9,3.1S25,52.7,25,51s-1.3-3.1-2.9-3.1C20.5,48,19.2,49.3,19.2,51z M78.6,52.1l3.9,4.1  c-2,1.9-4.7,3.1-7.6,3.1c-6.1,0-11-4.9-11-11s4.9-11,11-11c3,0,6.2,1,7.9,3.3l-4,4c-0.9-1-2.5-1.7-3.9-1.7c-3,0-5.4,2.5-5.4,5.4  c0,3,2.5,5.4,5.4,5.4C76.2,53.7,77.6,53.1,78.6,52.1z M102,39.5c0-1.7,1.4-3.1,3.1-3.1s3.1,1.4,3.1,3.1c0,1.7-1.4,3.1-3.1,3.1  C103.4,42.5,102,41.2,102,39.5z M99.4,58.1h-5.2v-1.6c-1,1.2-2.8,2-4.6,2c-5,0-7.2-3.4-7.2-7.3c0-3.7,2.4-7.6,7.2-7.6  c1.8,0,3.6,0.8,4.6,2V44h5.2V58.1z M94.4,51.1c0-1.6-1.4-3-3-3c-1.7,0-3,1.3-3,3c0,1.6,1.4,3,3,3S94.4,52.8,94.4,51.1z M126.8,58.1  h-5.2v-1.6c-1,1.2-2.8,2-4.6,2c-5,0-7.2-3.4-7.2-7.3c0-3.7,2.4-7.6,7.2-7.6c1.8,0,3.6,0.8,4.6,2V44h5.2V58.1z M121.7,51.1  c0-1.6-1.4-3-3-3c-1.7,0-3,1.3-3,3c0,1.6,1.4,3,3,3C120.4,54.1,121.7,52.8,121.7,51.1z M48.9,52H37.6c0,1.8,1.3,2.9,3,2.9  c1.5,0,2.6-1.3,2.4-1.3h5.5c-0.3,3-4.5,4.8-8,4.8c-5.2,0-8.3-2.9-8.3-7.2s3.2-7.8,8.6-7.8s8,3.5,8,7.8L48.9,52L48.9,52z M37.6,48.9  h5.9c0,0-0.3-2.4-2.9-2.4C37.9,46.6,37.6,49,37.6,48.9z"/>
</svg>